<?xml version="1.0" encoding="UTF-8" standalone="no"?>
<svg width="100px" height="44px" viewBox="0 0 100 44" version="1.1" xmlns="http://www.w3.org/2000/svg" xmlns:xlink="http://www.w3.org/1999/xlink" xmlns:sketch="http://www.bohemiancoding.com/sketch/ns">
    <!-- Generator: sketchtool 3.5.1 (25234) - http://www.bohemiancoding.com/sketch -->
    <title>ezier-logo</title>
    <desc>Created with sketchtool.</desc>
    <defs></defs>
    <g id="Page-1" stroke="none" stroke-width="1" fill="none" fill-rule="evenodd" sketch:type="MSPage">
        <g id="Requests-&amp;-Quotes---View-Request" sketch:type="MSArtboardGroup" transform="translate(-130.000000, -11.000000)">
            <g id="header" sketch:type="MSLayerGroup">
                <g id="ezier-logo" transform="translate(130.000000, 11.000000)">
                    <g id="logo" transform="translate(0.266388, 0.000000)" sketch:type="MSShapeGroup">
                        <path d="M20.263855,31.2720163 C21.8965953,29.5791756 22.901702,27.2706523 22.901702,24.7260492 C22.901702,24.6423933 22.9006156,24.5589926 22.8984564,24.4758606 L22.9039497,24.4758568 C22.9024567,24.4433578 22.901702,24.410665 22.901702,24.377795 C22.901702,23.223782 23.8319653,22.2882697 24.9795033,22.2882697 C26.1270412,22.2882697 27.0573045,23.223782 27.0573045,24.377795 C27.0573045,24.4106536 27.0565503,24.4433351 27.0550584,24.4758229 C27.0565537,24.559051 27.0573045,24.6424619 27.0573045,24.7260492 C27.0573045,32.2271334 21.0105929,38.3079635 13.5515962,38.3079635 C6.09259939,38.3079635 0.0458877889,32.2271334 0.0458877889,24.7260492 C0.0458877889,24.5614509 0.048799324,24.3975364 0.0545734275,24.234355 C0.0424142367,24.1519965 0.0361177932,24.0678778 0.0361177932,23.9824545 L0.0361177932,10.1464585 C0.0361177932,9.18575509 0.809006767,8.40695111 1.77738886,8.40695111 C2.73906632,8.40695111 3.51865993,9.19593451 3.51865993,10.1464585 L3.51865993,15.6336065 C3.74179621,15.3847626 3.97395659,15.1442617 4.21462251,14.9126253 C4.19825846,14.8070046 4.18976637,14.6987066 4.18976637,14.5883387 L4.18976637,4.91389729 C4.18976637,3.76029397 5.11723314,2.82511369 6.27929166,2.82511369 C7.4333046,2.82511369 8.36881694,3.75549214 8.36881694,4.91389729 L8.36881694,12.1801496 C8.59003458,12.0876239 8.81422523,12.000843 9.04120472,11.9199921 C9.03905731,11.8810468 9.03796938,11.8418085 9.03796938,11.802305 L9.03796938,2.12786358 C9.03796938,0.974260254 9.96543615,0.0390799828 11.1274947,0.0390799828 C12.2815076,0.0390799828 13.2170199,0.969458427 13.2170199,2.12786358 L13.2170199,11.148221 C13.3282174,11.1455021 13.439748,11.1441348 13.5515962,11.1441348 C18.0646344,11.1441348 22.0606618,13.3702112 24.5131719,16.7900652 C24.5742972,16.8654893 24.6302911,16.9452859 24.680618,17.0289167 C24.6823223,17.031404 24.6840257,17.0338918 24.6857283,17.0363802 L24.6852673,17.0366806 C24.8721013,17.3502149 24.9795033,17.7171037 24.9795033,18.1092191 C24.9795033,19.2632321 24.0492399,20.1987444 22.901702,20.1987444 C22.1975061,20.1987444 21.5751306,19.8464527 21.1993395,19.3075629 L21.1957265,19.3099165 C20.9143697,18.9090606 20.602622,18.5313189 20.263855,18.1800821 C18.3596107,15.8008787 15.4397998,14.2784228 12.1663953,14.2784228 C6.42870548,14.2784228 1.77738886,18.9559844 1.77738886,24.7260492 C1.77738886,30.4961139 6.42870548,35.1736756 12.1663953,35.1736756 C15.4397998,35.1736756 18.3596107,33.6512197 20.263855,31.2720163 Z" id="Rectangle-89-Copy-126" fill="#00AFB5"></path>
                        <path d="M10.8960565,15.2335218 C7.02563195,16.4628133 4.20149037,20.2703968 4.20149037,24.377795 C4.20149037,24.4973525 4.20388317,24.6166206 4.20862492,24.735545 L4.20862492,24.735545 L6.44390929,24.1332229 C7.37019342,23.8836253 8.32001107,24.42784 8.56924053,25.3632252 C8.81674443,26.2921343 8.26699545,27.247365 7.34020019,27.4971003 L5.00337201,28.1267845 C6.45843544,31.4223812 9.73845365,33.8731345 13.5515962,33.8731345 C14.195627,33.8731345 14.8170722,33.8266414 15.4115479,33.7326307 C14.398735,34.1017624 13.3059387,34.3030401 12.1663953,34.3030401 C6.9068463,34.3030401 2.6431394,30.0152752 2.6431394,24.7260492 C2.6431394,19.8699767 6.23710078,15.8580554 10.8960565,15.2335218 Z" id="Oval-53-Copy-12" fill="#3FD8DD"></path>
                    </g>
                    <g id="Group" transform="translate(31.746032, 11.111111)" font-weight="normal" font-family="Tsukushi A Round Gothic" sketch:alignment="middle" sketch:type="MSTextLayer">
                        <text id="EZIER" font-size="25.1486461" fill="#00AFB5">
                            <tspan x="0.264332204" y="22">EZIER</tspan>
                        </text>
                        <text id="service-marketplace-copy-26" font-size="6.28716152" fill="#3FD8DD">
                            <tspan x="6.52865695" y="30.3055556">service marketplace</tspan>
                        </text>
                    </g>
                </g>
            </g>
        </g>
    </g>
</svg>