<?xml version="1.0" encoding="UTF-8" standalone="no"?>
<svg width="22px" height="17px" viewBox="0 0 22 17" version="1.1" xmlns="http://www.w3.org/2000/svg" xmlns:xlink="http://www.w3.org/1999/xlink" xmlns:sketch="http://www.bohemiancoding.com/sketch/ns">
    <!-- Generator: sketchtool 3.5.1 (25234) - http://www.bohemiancoding.com/sketch -->
    <title>menu-trigger</title>
    <desc>Created with sketchtool.</desc>
    <defs></defs>
    <g id="Page-1" stroke="none" stroke-width="1" fill="none" fill-rule="evenodd" sketch:type="MSPage">
        <g id="Requests-&amp;-Quotes---View-Request" sketch:type="MSArtboardGroup" transform="translate(-246.000000, -27.000000)" fill="#00AFB5">
            <g id="header" sketch:type="MSLayerGroup">
                <g id="menu-trigger" transform="translate(246.000000, 27.000000)" sketch:type="MSShapeGroup">
                    <path d="M20.9,2.5 L1.7,2.5 C1.2,2.5 0.9,2.2 0.9,1.7 C0.9,1.2 1.2,0.9 1.7,0.9 L20.9,0.9 C21.4,0.9 21.7,1.2 21.7,1.7 C21.7,2.2 21.4,2.5 20.9,2.5 L20.9,2.5 Z" id="Shape"></path>
                    <path d="M20.9,9.7 L1.7,9.7 C1.2,9.7 0.9,9.4 0.9,8.9 C0.9,8.4 1.2,8.1 1.7,8.1 L20.9,8.1 C21.4,8.1 21.7,8.4 21.7,8.9 C21.7,9.4 21.4,9.7 20.9,9.7 L20.9,9.7 Z" id="Shape"></path>
                    <path d="M20.9,16.9 L1.7,16.9 C1.2,16.9 0.9,16.6 0.9,16.1 C0.9,15.6 1.2,15.3 1.7,15.3 L20.9,15.3 C21.4,15.3 21.7,15.6 21.7,16.1 C21.7,16.6 21.4,16.9 20.9,16.9 L20.9,16.9 Z" id="Shape"></path>
                </g>
            </g>
        </g>
    </g>
</svg>