<?xml version="1.0" encoding="UTF-8" standalone="no"?>
<svg width="32px" height="32px" viewBox="0 0 32 32" version="1.1" xmlns="http://www.w3.org/2000/svg" xmlns:xlink="http://www.w3.org/1999/xlink" xmlns:sketch="http://www.bohemiancoding.com/sketch/ns">
    <!-- Generator: sketchtool 3.5.1 (25234) - http://www.bohemiancoding.com/sketch -->
    <title>icon-phone</title>
    <desc>Created with sketchtool.</desc>
    <defs></defs>
    <g id="Page-1" stroke="none" stroke-width="1" fill="none" fill-rule="evenodd" sketch:type="MSPage">
        <g id="Requests-&amp;-Quotes---View-Request" sketch:type="MSArtboardGroup" transform="translate(-1208.000000, -168.000000)">
            <g id="icon-phone" sketch:type="MSLayerGroup" transform="translate(1209.000000, 169.000000)">
                <circle id="Oval-452-Copy" stroke="#00AFB5" sketch:type="MSShapeGroup" cx="15" cy="15" r="15"></circle>
                <path d="M18.271733,22.8569337 L18.271733,22.8569337 C17.4710091,22.8569337 16.6130907,22.5709609 15.9839505,22.1134044 C14.0393354,20.7407349 12.781055,19.5396491 11.6943584,18.4529525 C10.6076617,17.3662558 9.40657588,16.0507809 8.0339064,14.1633603 C6.66123692,12.3331344 7.23318254,9.93096277 9.29218676,7.75756942 C9.92132694,7.12842924 11.0080236,7.12842924 11.6943584,7.75756942 L12.9526387,9.01584978 C13.2386115,9.30182259 13.4101952,9.75937908 13.4101952,10.2169356 C13.4101952,10.6744921 13.2386115,11.1320486 12.9526387,11.4180214 L12.3806931,11.989967 C12.2091094,12.1615507 12.266304,12.4475235 12.3806931,12.6191072 C13.0098333,13.419831 14.09653,14.6209168 14.7828647,15.1928625 C15.4120049,15.8220026 16.4987015,16.9086993 17.35662,17.595034 C17.5282037,17.7666177 17.8141765,17.7666177 17.9857602,17.595034 L18.5577058,17.0230884 C19.186846,16.3939483 20.2735426,16.3939483 20.9598774,17.0230884 L22.2181577,18.2813688 C22.5041305,18.5673416 22.6757142,19.0248981 22.6757142,19.4824546 C22.6757142,19.9400111 22.5041305,20.3975676 22.2181577,20.6835404 C21.0170719,22.1134044 19.6444024,22.8569337 18.271733,22.8569337 L18.271733,22.8569337 Z M10.4932726,8.21512591 C10.3216889,8.21512591 10.1501052,8.32951504 9.92132694,8.3867096 C8.09110096,10.2169356 7.74793359,12.1615507 8.72024114,13.5914147 C10.0929106,15.5360298 11.1796073,16.6799211 12.266304,17.8238123 C13.3530006,18.910509 14.5540864,19.9972056 16.4987015,21.3698751 C17.9857602,22.3993772 19.8731807,21.9990153 21.7034067,20.1687893 C21.8749904,19.9972056 21.8749904,19.825622 21.8749904,19.5968437 C21.8749904,19.42526 21.7606012,19.2536763 21.7034067,19.0248981 L20.3307372,17.7666177 C20.0447644,17.4806449 19.5300133,17.4806449 19.2440405,17.7666177 L18.6720949,18.3385634 C18.2145384,18.7961198 17.4710091,18.7961198 16.8418689,18.3385634 C15.9267559,17.7094232 14.8400593,16.5083374 14.2109191,15.8791972 C13.5817789,15.250057 12.3806931,14.0489712 11.7515529,13.2482474 C11.2939964,12.6191072 11.2939964,11.8755779 11.7515529,11.4180214 L12.3234985,10.8460758 C12.4950822,10.6744921 12.4950822,10.5029084 12.4950822,10.2741301 C12.4950822,10.0453519 12.3806931,9.93096277 12.3234985,9.70218452 L11.0652182,8.44390416 C10.8936345,8.32951504 10.6648562,8.21512591 10.4932726,8.21512591 L10.4932726,8.21512591 Z" id="Shape" fill="#00AFB5" sketch:type="MSShapeGroup"></path>
            </g>
        </g>
    </g>
</svg>