<?xml version="1.0" encoding="UTF-8" standalone="no"?>
<svg width="15px" height="16px" viewBox="0 0 15 16" version="1.1" xmlns="http://www.w3.org/2000/svg" xmlns:xlink="http://www.w3.org/1999/xlink" xmlns:sketch="http://www.bohemiancoding.com/sketch/ns">
    <!-- Generator: sketchtool 3.5.1 (25234) - http://www.bohemiancoding.com/sketch -->
    <title>icon-thumb-up</title>
    <desc>Created with sketchtool.</desc>
    <defs></defs>
    <g id="Page-1" stroke="none" stroke-width="1" fill="none" fill-rule="evenodd" sketch:type="MSPage">
        <g id="Deals-&amp;-Promotions" sketch:type="MSArtboardGroup" transform="translate(-1028.000000, -503.000000)" fill="#00AFB5">
            <g id="icon-thumb-up" sketch:type="MSLayerGroup" transform="translate(1028.000000, 503.000000)">
                <path d="M14.7840176,8.51127949 C14.7840176,7.96093932 14.6203924,7.42008777 14.3123921,6.96463384 C14.3701421,6.75588412 14.3990172,6.52815715 14.3990172,6.3099188 C14.3990172,5.83548762 14.273892,5.36105644 14.0332667,4.943557 C14.0525168,4.81071627 14.0621418,4.66838691 14.0621418,4.53554618 C14.0621418,3.92827427 13.8600165,3.32100235 13.4846411,2.84657117 L13.4846411,2.79912805 C13.4942661,1.02475543 12.2333896,-1.59263223e-05 10.4816375,-1.59263223e-05 L9.40363621,-1.59263223e-05 C7.92138444,-1.59263223e-05 6.71825801,0.360551773 5.33225636,0.834982955 C5.05313102,0.929869192 4.27350509,1.2145279 4.00400477,1.2145279 L1.23200147,1.2145279 C0.548625654,1.2145279 0,1.75537945 0,2.42907173 L0,8.50179087 C0,9.17548315 0.548625654,9.7163347 1.23200147,9.7163347 L3.86925461,9.7163347 C4.24463006,9.96303891 4.89913084,10.817015 5.18788118,11.1870714 C5.51513157,11.6045708 5.85200698,12.0125816 6.21775741,12.3921266 C6.78563309,13.0088871 6.48725773,14.5080896 7.44975888,15.4379748 C7.68075916,15.6562131 7.98875952,15.7890538 8.31600991,15.7890538 C9.31701111,15.7890538 10.2795123,15.4379748 10.7511378,14.5175783 C11.0495132,13.9482608 11.0880132,13.3789434 11.0880132,12.7526943 C11.0880132,12.0884906 10.914763,11.5191732 10.6260127,10.9308785 L12.3200147,10.9308785 C13.6482663,10.9308785 14.7840176,9.82070956 14.7840176,8.51127949 Z M13.5520162,8.50179087 C13.5520162,9.14701728 12.9648905,9.7163347 12.3200147,9.7163347 L8.93201065,9.7163347 C8.93201065,10.8265037 9.85601175,11.6330367 9.85601175,12.7526943 C9.85601175,13.8628632 9.63463649,14.57451 8.31600991,14.57451 C7.70000918,13.9577495 8.01763456,12.5059901 7.08400844,11.5381504 C6.81450812,11.2629804 6.58350785,10.968833 6.34288256,10.6746857 C5.90975704,10.1243455 4.76438068,8.50179087 4.00400477,8.50179087 L3.69600441,8.50179087 L3.69600441,2.42907173 L4.00400477,2.42907173 C4.54300542,2.42907173 5.42850647,2.08748128 5.94825709,1.90719743 C7.00700835,1.54662973 8.10425966,1.2145279 9.24001101,1.2145279 L10.4720125,1.2145279 C11.5403888,1.2145279 12.2526396,1.68895908 12.2526396,2.79912805 C12.2526396,2.9794119 12.2333896,3.15969575 12.2045145,3.33049098 C12.608765,3.54872932 12.8301403,4.08958087 12.8301403,4.52605756 C12.8301403,4.75378453 12.7723902,4.98151149 12.6568901,5.18077259 C12.9841405,5.48440855 13.1670157,5.86395349 13.1670157,6.3099188 C13.1670157,6.61355476 13.0322655,7.05952007 12.8301403,7.28724704 C13.2825158,7.29673566 13.5520162,8.15071179 13.5520162,8.50179087 Z" id="Icons/Thumb-down" sketch:type="MSShapeGroup" transform="translate(7.392009, 7.894519) scale(1, -1) translate(-7.392009, -7.894519) "></path>
            </g>
        </g>
    </g>
</svg>