<?xml version="1.0" encoding="UTF-8" standalone="no"?>
<svg width="20px" height="20px" viewBox="0 0 20 20" version="1.1" xmlns="http://www.w3.org/2000/svg" xmlns:xlink="http://www.w3.org/1999/xlink" xmlns:sketch="http://www.bohemiancoding.com/sketch/ns">
    <!-- Generator: sketchtool 3.5.1 (25234) - http://www.bohemiancoding.com/sketch -->
    <title>icon-add</title>
    <desc>Created with sketchtool.</desc>
    <defs></defs>
    <g id="Page-1" stroke="none" stroke-width="1" fill="none" fill-rule="evenodd" sketch:type="MSPage">
        <g id="Settings---Payment" sketch:type="MSArtboardGroup" transform="translate(-815.000000, -486.000000)">
            <g id="icon-add" sketch:type="MSLayerGroup" transform="translate(815.000000, 486.000000)">
                <path d="M9.61477535,0.308097433 C4.33971774,0.308097433 0.0237615207,4.61284338 0.0237615207,9.87419953 C0.0237615207,15.1355557 4.33971774,19.4403016 9.61477535,19.4403016 C14.8898329,19.4403016 19.2057892,15.1355557 19.2057892,9.87419953 C19.2057892,4.61284338 14.8898329,0.308097433 9.61477535,0.308097433 L9.61477535,0.308097433 Z" id="Shape" fill="#00AFB5" sketch:type="MSShapeGroup"></path>
                <g id="Group" transform="translate(5.378744, 5.968041)" fill="#FFFFFF" sketch:type="MSShapeGroup">
                    <path d="M7.43303571,4.5438985 L1.0390265,4.5438985 C0.639400922,4.5438985 0.399625576,4.30474595 0.399625576,3.90615836 C0.399625576,3.50757077 0.639400922,3.26841822 1.0390265,3.26841822 L7.43303571,3.26841822 C7.83266129,3.26841822 8.07243664,3.50757077 8.07243664,3.90615836 C8.07243664,4.30474595 7.83266129,4.5438985 7.43303571,4.5438985 L7.43303571,4.5438985 Z" id="Shape"></path>
                    <path d="M4.23603111,7.7325992 C3.83640553,7.7325992 3.59663018,7.49344665 3.59663018,7.09485906 L3.59663018,0.717457658 C3.59663018,0.31887007 3.83640553,0.0797175175 4.23603111,0.0797175175 C4.63565668,0.0797175175 4.87543203,0.31887007 4.87543203,0.717457658 L4.87543203,7.09485906 C4.87543203,7.49344665 4.63565668,7.7325992 4.23603111,7.7325992 L4.23603111,7.7325992 Z" id="Shape"></path>
                </g>
            </g>
        </g>
    </g>
</svg>