<?xml version="1.0" encoding="UTF-8" standalone="no"?>
<svg width="18px" height="17px" viewBox="0 0 18 17" version="1.1" xmlns="http://www.w3.org/2000/svg" xmlns:xlink="http://www.w3.org/1999/xlink" xmlns:sketch="http://www.bohemiancoding.com/sketch/ns">
    <!-- Generator: sketchtool 3.5.1 (25234) - http://www.bohemiancoding.com/sketch -->
    <title>icon-interests-on</title>
    <desc>Created with sketchtool.</desc>
    <defs></defs>
    <g id="Page-1" stroke="none" stroke-width="1" fill="none" fill-rule="evenodd" sketch:type="MSPage">
        <g id="Profile---Interests" sketch:type="MSArtboardGroup" transform="translate(-785.000000, -266.000000)" fill="#00AFB5">
            <g id="icon-interests-on" sketch:type="MSLayerGroup" transform="translate(785.000000, 266.000000)">
                <path d="M8.51382114,16.9355014 C8.38482385,16.9355014 8.19132791,16.8065041 8.12682927,16.8065041 L0.25799458,8.93766938 C0.064498645,8.74417344 0.064498645,8.42168022 0.25799458,8.22818428 C1.48346883,7.00271003 3.48292683,6.6802168 5.03089431,7.3897019 L9.15880759,3.26178862 L9.15880759,3.26178862 C8.83631436,2.93929539 8.64281843,2.42330623 8.64281843,2.03631436 C8.64281843,1.64932249 8.83631436,1.13333333 9.15880759,0.810840108 L9.35230352,0.617344173 C10.0617886,-0.0921409214 11.2227642,-0.0921409214 11.803252,0.617344173 L16.5761518,5.3902439 C16.898645,5.71273713 17.0921409,6.22872629 17.0921409,6.61571816 C17.0921409,7.00271003 16.898645,7.45420054 16.5761518,7.77669377 L16.3826558,7.9701897 C15.6731707,8.6796748 14.5121951,8.6796748 13.9317073,7.9701897 L13.9317073,7.9701897 L9.80379404,12.098103 C10.5132791,13.6460705 10.1907859,15.5810298 8.96531165,16.8710027 C8.70731707,16.9355014 8.64281843,16.9355014 8.51382114,16.9355014 L8.51382114,16.9355014 Z M1.41897019,8.6796748 L8.44932249,15.7100271 C9.15880759,14.6780488 9.28780488,13.3235772 8.57831978,12.2915989 C8.44932249,12.098103 8.44932249,11.904607 8.70731707,11.6466125 L13.5447154,6.80921409 C13.7382114,6.61571816 14.0607046,6.61571816 14.2542005,6.80921409 L14.6411924,7.19620596 C14.9636856,7.51869919 15.4796748,7.51869919 15.6731707,7.19620596 L15.8666667,7.00271003 C15.995664,6.87371274 16.0601626,6.6802168 16.0601626,6.48672087 C16.0601626,6.29322493 15.9311653,6.099729 15.8666667,5.97073171 L11.0937669,1.19783198 C10.7712737,0.875338753 10.2552846,0.875338753 10.0617886,1.19783198 L9.86829268,1.39132791 C9.73929539,1.5203252 9.67479675,1.71382114 9.67479675,1.90731707 C9.67479675,2.10081301 9.80379404,2.29430894 9.86829268,2.42330623 L10.2552846,2.8102981 C10.4487805,3.00379404 10.4487805,3.32628726 10.2552846,3.5197832 L5.48238482,8.29268293 C5.28888889,8.48617886 5.09539295,8.48617886 4.83739837,8.42168022 C3.80542005,7.90569106 2.45094851,7.9701897 1.41897019,8.6796748 L1.41897019,8.6796748 Z" id="Shape" sketch:type="MSShapeGroup"></path>
                <path d="M4.90189702,12.9365854 L1.48346883,16.3550136 C1.35447154,16.4840108 1.2899729,16.4840108 1.09647696,16.4840108 C0.90298103,16.4840108 0.77398374,16.4840108 0.709485095,16.3550136 C0.51598916,16.1615176 0.51598916,15.8390244 0.709485095,15.6455285 L4.12791328,12.2271003 L4.90189702,12.9365854 L4.90189702,12.9365854 Z" id="Shape" sketch:type="MSShapeGroup"></path>
            </g>
        </g>
    </g>
</svg>