<?xml version="1.0" encoding="UTF-8" standalone="no"?>
<svg width="20px" height="20px" viewBox="0 0 20 20" version="1.1" xmlns="http://www.w3.org/2000/svg" xmlns:xlink="http://www.w3.org/1999/xlink" xmlns:sketch="http://www.bohemiancoding.com/sketch/ns">
    <!-- Generator: sketchtool 3.5.1 (25234) - http://www.bohemiancoding.com/sketch -->
    <title>icon-started</title>
    <desc>Created with sketchtool.</desc>
    <defs></defs>
    <g id="Page-1" stroke="none" stroke-width="1" fill="none" fill-rule="evenodd" sketch:type="MSPage">
        <g id="Jobs---Job-Details---View-Job" sketch:type="MSArtboardGroup" transform="translate(-1198.000000, -1248.000000)">
            <g id="icon-started" sketch:type="MSLayerGroup" transform="translate(1198.000000, 1248.000000)">
                <g id="Group-Copy-4" fill="#00AFB5" sketch:type="MSShapeGroup">
                    <path d="M10.0495972,0.329215564 C4.67610884,0.329215564 0.279618369,4.72570604 0.279618369,10.0991944 C0.279618369,15.4726827 4.67610884,19.8691732 10.0495972,19.8691732 C15.4230855,19.8691732 19.819576,15.4726827 19.819576,10.0991944 C19.819576,4.72570604 15.4230855,0.329215564 10.0495972,0.329215564 L10.0495972,0.329215564 Z" id="Shape"></path>
                </g>
                <g id="Group" transform="translate(4.285714, 5.142857)" fill="#FFFFFF" sketch:type="MSShapeGroup">
                    <path d="M6.1862069,9.72118227 L6.1862069,9.72118227 C5.68669951,9.72118227 5.37931034,9.52906404 5.3408867,9.52906404 C5.30246305,9.52906404 5.26403941,9.45221675 5.22561576,9.4137931 C5.22561576,9.33694581 4.99507389,9.02955665 5.03349754,8.49162562 C4.41871921,8.41477833 3.88078818,8.06896552 3.3044335,7.56945813 C2.76650246,7.03152709 2.4591133,6.45517241 2.38226601,5.84039409 C1.84433498,5.84039409 1.46009852,5.64827586 1.46009852,5.64827586 C1.38325123,5.64827586 1.38325123,5.57142857 1.34482759,5.53300493 C1.2679803,5.45615764 0.499507389,4.11133005 2.38226601,2.22857143 C3.18916256,1.42167488 4.03448276,1.30640394 4.72610837,1.84433498 L4.72610837,1.84433498 C4.84137931,1.72906404 4.9182266,1.65221675 4.95665025,1.65221675 C6.57044335,0.345812808 7.91527094,0.115270936 8.76059113,0.115270936 C9.75960591,0.115270936 10.2975369,0.499507389 10.2975369,0.499507389 C10.3743842,0.499507389 10.3743842,0.57635468 10.4128079,0.614778325 C10.4896552,0.691625616 11.7192118,2.84334975 9.18325123,5.95566502 L9.18325123,5.95566502 C9.10640394,6.03251232 9.0679803,6.07093596 8.991133,6.1862069 L8.991133,6.1862069 C9.52906404,6.91625616 9.4137931,7.72315271 8.60689655,8.53004926 C7.60788177,9.49064039 6.72413793,9.72118227 6.1862069,9.72118227 L6.1862069,9.72118227 Z M5.68669951,8.991133 C5.7635468,9.0679803 5.91724138,9.0679803 6.1862069,9.0679803 L6.1862069,9.0679803 C6.608867,9.0679803 7.33891626,8.87586207 8.2226601,8.03054187 C9.02955665,7.22364532 8.72216749,6.68571429 8.41477833,6.37832512 C8.2226601,6.1862069 8.33793103,5.95566502 8.60689655,5.7635468 C8.68374384,5.68669951 8.72216749,5.64827586 8.72216749,5.64827586 C8.72216749,5.64827586 8.72216749,5.57142857 8.79901478,5.57142857 C10.835468,3.03546798 10.2206897,1.34482759 10.0285714,0.960591133 C9.91330049,0.883743842 9.49064039,0.730049261 8.87586207,0.730049261 C8.14581281,0.730049261 6.91625616,0.960591133 5.41773399,2.19014778 C5.41773399,2.19014778 5.3408867,2.19014778 5.3408867,2.26699507 C5.26403941,2.26699507 5.22561576,2.34384236 5.22561576,2.38226601 C4.99507389,2.57438424 4.9182266,2.61280788 4.80295567,2.61280788 L4.80295567,2.61280788 C4.72610837,2.61280788 4.61083744,2.53596059 4.57241379,2.53596059 C4.0729064,2.0364532 3.53497537,2.11330049 2.92019704,2.72807882 C1.6137931,4.03448276 1.80591133,4.95665025 1.92118227,5.18719212 C2.0364532,5.26403941 2.34384236,5.30246305 2.72807882,5.26403941 C2.80492611,5.26403941 2.92019704,5.26403941 2.95862069,5.3408867 C3.03546798,5.41773399 3.07389163,5.45615764 3.07389163,5.57142857 C3.07389163,6.10935961 3.3044335,6.68571429 3.88078818,7.18522167 C4.38029557,7.68472906 4.9182266,7.99211823 5.49458128,7.99211823 C5.57142857,7.99211823 5.68669951,8.06896552 5.72512315,8.10738916 C5.80197044,8.18423645 5.80197044,8.29950739 5.80197044,8.33793103 C5.57142857,8.60689655 5.60985222,8.87586207 5.68669951,8.991133 L5.68669951,8.991133 Z" id="Shape"></path>
                    <path d="M0.960591133,10.1438424 C0.883743842,10.1438424 0.768472906,10.1438424 0.730049261,10.0669951 C0.614778325,9.95172414 0.614778325,9.75960591 0.730049261,9.64433498 L2.26699507,8.10738916 C2.38226601,7.99211823 2.57438424,7.99211823 2.68965517,8.10738916 C2.80492611,8.2226601 2.80492611,8.41477833 2.68965517,8.53004926 L1.22955665,9.99014778 C1.15270936,10.1054187 1.07586207,10.1438424 0.960591133,10.1438424 L0.960591133,10.1438424 Z" id="Shape"></path>
                    <path d="M0.57635468,8.18423645 C0.499507389,8.18423645 0.384236453,8.18423645 0.345812808,8.10738916 C0.230541872,7.99211823 0.230541872,7.8 0.345812808,7.68472906 L1.15270936,6.87783251 C1.2679803,6.76256158 1.46009852,6.76256158 1.57536946,6.87783251 C1.69064039,6.99310345 1.69064039,7.18522167 1.57536946,7.30049261 L0.768472906,8.10738916 C0.768472906,8.18423645 0.65320197,8.18423645 0.57635468,8.18423645 L0.57635468,8.18423645 Z" id="Shape"></path>
                    <path d="M2.92019704,10.5280788 C2.84334975,10.5280788 2.72807882,10.5280788 2.68965517,10.4512315 C2.57438424,10.3359606 2.57438424,10.1438424 2.68965517,10.0285714 L3.49655172,9.22167488 C3.61182266,9.10640394 3.80394089,9.10640394 3.91921182,9.22167488 C4.03448276,9.33694581 4.03448276,9.52906404 3.91921182,9.64433498 L3.11231527,10.4512315 C3.03546798,10.5280788 2.99704433,10.5280788 2.92019704,10.5280788 L2.92019704,10.5280788 Z" id="Shape"></path>
                    <path d="M6.80098522,5.41773399 C6.41674877,5.41773399 6.07093596,5.30246305 5.80197044,4.99507389 C5.26403941,4.45714286 5.26403941,3.57339901 5.80197044,3.03546798 C6.33990148,2.49753695 7.26206897,2.49753695 7.76157635,3.03546798 C7.99211823,3.26600985 8.18423645,3.65024631 8.18423645,4.03448276 C8.18423645,4.41871921 8.06896552,4.76453202 7.76157635,5.03349754 C7.53103448,5.22561576 7.14679803,5.41773399 6.80098522,5.41773399 L6.80098522,5.41773399 Z M6.80098522,3.22758621 C6.608867,3.22758621 6.37832512,3.3044335 6.26305419,3.45812808 C5.95566502,3.76551724 5.95566502,4.26502463 6.26305419,4.57241379 C6.57044335,4.87980296 7.06995074,4.87980296 7.3773399,4.57241379 C7.49261084,4.45714286 7.60788177,4.18817734 7.60788177,4.03448276 C7.60788177,3.84236453 7.53103448,3.61182266 7.3773399,3.49655172 C7.22364532,3.38128079 7.03152709,3.22758621 6.80098522,3.22758621 L6.80098522,3.22758621 Z" id="Shape"></path>
                </g>
            </g>
        </g>
    </g>
</svg>