<?xml version="1.0" encoding="UTF-8" standalone="no"?>
<svg width="32px" height="32px" viewBox="0 0 32 32" version="1.1" xmlns="http://www.w3.org/2000/svg" xmlns:xlink="http://www.w3.org/1999/xlink" xmlns:sketch="http://www.bohemiancoding.com/sketch/ns">
    <!-- Generator: sketchtool 3.5.1 (25234) - http://www.bohemiancoding.com/sketch -->
    <title>icon-event</title>
    <desc>Created with sketchtool.</desc>
    <defs></defs>
    <g id="Page-1" stroke="none" stroke-width="1" fill="none" fill-rule="evenodd" sketch:type="MSPage">
        <g id="Requests-&amp;-Quotes---View-Request" sketch:type="MSArtboardGroup" transform="translate(-1258.000000, -168.000000)">
            <g id="icon-event" sketch:type="MSLayerGroup" transform="translate(1259.000000, 169.000000)">
                <circle id="Oval-452" stroke="#00AFB5" sketch:type="MSShapeGroup" cx="15" cy="15" r="15"></circle>
                <g id="Group" transform="translate(7.285714, 7.285714)" fill="#00AFB5" sketch:type="MSShapeGroup">
                    <g transform="translate(0.000000, 0.000000)" id="Shape">
                        <path d="M13.3301587,14.5904762 L2.71428571,14.5904762 C1.38730159,14.5904762 0.301587302,13.5047619 0.301587302,12.1777778 L0.301587302,3.49206349 C0.301587302,2.16507937 1.38730159,1.07936508 2.71428571,1.07936508 L13.3301587,1.07936508 C14.6571429,1.07936508 15.7428571,2.16507937 15.7428571,3.49206349 L15.7428571,12.1777778 C15.7428571,13.5047619 14.7174603,14.5904762 13.3301587,14.5904762 L13.3301587,14.5904762 Z M2.71428571,2.04444444 C1.93015873,2.04444444 1.26666667,2.70793651 1.26666667,3.49206349 L1.26666667,12.1777778 C1.26666667,12.9619048 1.93015873,13.6253968 2.71428571,13.6253968 L13.3301587,13.6253968 C14.1142857,13.6253968 14.7777778,12.9619048 14.7777778,12.1777778 L14.7777778,3.49206349 C14.7777778,2.70793651 14.1142857,2.04444444 13.3301587,2.04444444 L2.71428571,2.04444444 L2.71428571,2.04444444 Z"></path>
                        <g transform="translate(4.222222, 0.000000)">
                            <path d="M0.904761905,3.00952381 C0.603174603,3.00952381 0.422222222,2.82857143 0.422222222,2.52698413 L0.422222222,0.596825397 C0.422222222,0.295238095 0.603174603,0.114285714 0.904761905,0.114285714 C1.20634921,0.114285714 1.38730159,0.295238095 1.38730159,0.596825397 L1.38730159,2.52698413 C1.38730159,2.82857143 1.20634921,3.00952381 0.904761905,3.00952381 L0.904761905,3.00952381 Z"></path>
                            <path d="M6.6952381,3.00952381 C6.39365079,3.00952381 6.21269841,2.82857143 6.21269841,2.52698413 L6.21269841,0.596825397 C6.21269841,0.295238095 6.39365079,0.114285714 6.6952381,0.114285714 C6.9968254,0.114285714 7.17777778,0.295238095 7.17777778,0.596825397 L7.17777778,2.52698413 C7.17777778,2.82857143 6.9968254,3.00952381 6.6952381,3.00952381 L6.6952381,3.00952381 Z"></path>
                        </g>
                        <path d="M14.7777778,5.9047619 L1.26666667,5.9047619 C0.965079365,5.9047619 0.784126984,5.72380952 0.784126984,5.42222222 C0.784126984,5.12063492 0.965079365,4.93968254 1.26666667,4.93968254 L14.7777778,4.93968254 C15.0793651,4.93968254 15.2603175,5.12063492 15.2603175,5.42222222 C15.2603175,5.72380952 15.0793651,5.9047619 14.7777778,5.9047619 L14.7777778,5.9047619 Z"></path>
                    </g>
                    <g transform="translate(2.412698, 7.238095)" id="Shape">
                        <path d="M1.26666667,4.93968254 C0.965079365,4.93968254 0.784126984,4.81904762 0.603174603,4.63809524 C0.422222222,4.45714286 0.301587302,4.15555556 0.301587302,3.97460317 C0.301587302,3.67301587 0.422222222,3.49206349 0.603174603,3.31111111 C0.965079365,2.94920635 1.56825397,2.94920635 1.93015873,3.31111111 C2.11111111,3.49206349 2.23174603,3.79365079 2.23174603,3.97460317 C2.23174603,4.15555556 2.11111111,4.45714286 1.93015873,4.63809524 C1.74920635,4.81904762 1.56825397,4.93968254 1.26666667,4.93968254 L1.26666667,4.93968254 Z"></path>
                        <path d="M1.26666667,2.04444444 C0.965079365,2.04444444 0.784126984,1.92380952 0.603174603,1.74285714 C0.422222222,1.56190476 0.301587302,1.38095238 0.301587302,1.07936508 C0.301587302,0.777777778 0.422222222,0.596825397 0.603174603,0.415873016 C0.965079365,0.053968254 1.56825397,0.053968254 1.93015873,0.415873016 C2.11111111,0.596825397 2.23174603,0.898412698 2.23174603,1.07936508 C2.23174603,1.26031746 2.11111111,1.56190476 1.93015873,1.74285714 C1.74920635,1.92380952 1.56825397,2.04444444 1.26666667,2.04444444 L1.26666667,2.04444444 Z"></path>
                        <path d="M4.16190476,4.93968254 C3.86031746,4.93968254 3.67936508,4.81904762 3.4984127,4.63809524 C3.31746032,4.45714286 3.1968254,4.15555556 3.1968254,3.97460317 C3.1968254,3.79365079 3.31746032,3.49206349 3.4984127,3.31111111 C3.86031746,2.94920635 4.46349206,2.94920635 4.82539683,3.31111111 C5.00634921,3.49206349 5.12698413,3.79365079 5.12698413,3.97460317 C5.12698413,4.15555556 5.00634921,4.45714286 4.82539683,4.63809524 C4.64444444,4.81904762 4.46349206,4.93968254 4.16190476,4.93968254 L4.16190476,4.93968254 Z"></path>
                        <path d="M4.16190476,2.04444444 C3.86031746,2.04444444 3.67936508,1.92380952 3.4984127,1.74285714 C3.31746032,1.56190476 3.1968254,1.26031746 3.1968254,1.07936508 C3.1968254,0.898412698 3.31746032,0.596825397 3.4984127,0.415873016 C3.86031746,0.053968254 4.46349206,0.053968254 4.82539683,0.415873016 C5.00634921,0.596825397 5.12698413,0.898412698 5.12698413,1.07936508 C5.12698413,1.26031746 5.00634921,1.56190476 4.82539683,1.74285714 C4.64444444,1.92380952 4.46349206,2.04444444 4.16190476,2.04444444 L4.16190476,2.04444444 Z"></path>
                        <path d="M7.05714286,4.93968254 C6.75555556,4.93968254 6.57460317,4.81904762 6.39365079,4.63809524 C6.21269841,4.45714286 6.09206349,4.15555556 6.09206349,3.97460317 C6.09206349,3.79365079 6.21269841,3.49206349 6.39365079,3.31111111 C6.75555556,2.94920635 7.35873016,2.94920635 7.72063492,3.31111111 C7.9015873,3.49206349 8.02222222,3.67301587 8.02222222,3.97460317 C8.02222222,4.27619048 7.9015873,4.45714286 7.72063492,4.63809524 C7.53968254,4.81904762 7.35873016,4.93968254 7.05714286,4.93968254 L7.05714286,4.93968254 Z"></path>
                        <path d="M7.05714286,2.04444444 C6.75555556,2.04444444 6.57460317,1.92380952 6.39365079,1.74285714 C6.21269841,1.56190476 6.09206349,1.26031746 6.09206349,1.07936508 C6.09206349,0.898412698 6.21269841,0.596825397 6.39365079,0.415873016 C6.75555556,0.053968254 7.35873016,0.053968254 7.72063492,0.415873016 C7.9015873,0.596825397 8.02222222,0.898412698 8.02222222,1.07936508 C8.02222222,1.38095238 7.9015873,1.56190476 7.72063492,1.74285714 C7.53968254,1.92380952 7.35873016,2.04444444 7.05714286,2.04444444 L7.05714286,2.04444444 Z"></path>
                        <path d="M9.95238095,4.93968254 C9.65079365,4.93968254 9.46984127,4.81904762 9.28888889,4.63809524 C9.10793651,4.45714286 8.98730159,4.15555556 8.98730159,3.97460317 C8.98730159,3.67301587 9.10793651,3.49206349 9.28888889,3.31111111 C9.65079365,2.94920635 10.2539683,2.94920635 10.615873,3.31111111 C10.7968254,3.49206349 10.9174603,3.79365079 10.9174603,3.97460317 C10.9174603,4.15555556 10.7968254,4.45714286 10.615873,4.63809524 C10.4349206,4.81904762 10.2539683,4.93968254 9.95238095,4.93968254 L9.95238095,4.93968254 Z"></path>
                        <path d="M9.95238095,2.04444444 C9.65079365,2.04444444 9.46984127,1.92380952 9.28888889,1.74285714 C9.10793651,1.56190476 8.98730159,1.26031746 8.98730159,1.07936508 C8.98730159,0.898412698 9.10793651,0.596825397 9.28888889,0.415873016 C9.65079365,0.053968254 10.2539683,0.053968254 10.615873,0.415873016 C10.7968254,0.596825397 10.9174603,0.898412698 10.9174603,1.07936508 C10.9174603,1.38095238 10.7968254,1.56190476 10.615873,1.74285714 C10.4349206,1.92380952 10.2539683,2.04444444 9.95238095,2.04444444 L9.95238095,2.04444444 Z"></path>
                    </g>
                </g>
            </g>
        </g>
    </g>
</svg>