<?xml version="1.0" encoding="UTF-8" standalone="no"?>
<svg width="20px" height="20px" viewBox="0 0 20 20" version="1.1" xmlns="http://www.w3.org/2000/svg" xmlns:xlink="http://www.w3.org/1999/xlink" xmlns:sketch="http://www.bohemiancoding.com/sketch/ns">
    <!-- Generator: sketchtool 3.5.1 (25234) - http://www.bohemiancoding.com/sketch -->
    <title>icon-delete</title>
    <desc>Created with sketchtool.</desc>
    <defs></defs>
    <g id="Page-1" stroke="none" stroke-width="1" fill="none" fill-rule="evenodd" sketch:type="MSPage">
        <g id="Requests-&amp;-Quotes---Quote--Attachments" sketch:type="MSArtboardGroup" transform="translate(-540.000000, -461.000000)">
            <g id="icon-delete" sketch:type="MSLayerGroup" transform="translate(540.000000, 461.000000)">
                <g id="Group-Copy-4" fill="#00AFB5" sketch:type="MSShapeGroup">
                    <path d="M10.0471173,19.3662381 C4.57788315,19.3662381 0.129572672,15.0614215 0.129572672,9.7686142 C0.129572672,4.47580692 4.57788315,0.17099033 10.0471173,0.17099033 C15.5163515,0.17099033 19.964662,4.47580692 19.964662,9.7686142 C19.964662,15.0614215 15.5892746,19.3662381 10.0471173,19.3662381 L10.0471173,19.3662381 Z" id="Shape"></path>
                </g>
                <g id="Group" transform="translate(5.500000, 4.354839)" fill="#FFFFFF" sketch:type="MSShapeGroup">
                    <path d="M8.93,4.37211982 L0.418,4.37211982 C0.228,4.37211982 0.114,4.25806452 0.114,4.06797235 L0.114,2.85138249 C0.114,2.35714286 0.532,1.93894009 1.026,1.93894009 L8.322,1.93894009 C8.816,1.93894009 9.234,2.35714286 9.234,2.85138249 L9.234,4.06797235 C9.234,4.18202765 9.12,4.37211982 8.93,4.37211982 L8.93,4.37211982 Z M0.722,3.76382488 L8.626,3.76382488 L8.626,2.85138249 C8.626,2.66129032 8.512,2.54723502 8.322,2.54723502 L1.026,2.54723502 C0.836,2.54723502 0.722,2.66129032 0.722,2.85138249 L0.722,3.76382488 L0.722,3.76382488 Z" id="Shape"></path>
                    <path d="M7.106,10.4550691 L2.242,10.4550691 C1.406,10.4550691 0.722,9.77073733 0.722,8.9343318 L0.722,4.06797235 C0.722,3.87788018 0.836,3.76382488 1.026,3.76382488 C1.216,3.76382488 1.33,3.87788018 1.33,4.06797235 L1.33,8.9343318 C1.33,9.42857143 1.748,9.84677419 2.242,9.84677419 L7.106,9.84677419 C7.6,9.84677419 8.018,9.42857143 8.018,8.9343318 L8.018,4.06797235 C8.018,3.87788018 8.132,3.76382488 8.322,3.76382488 C8.512,3.76382488 8.626,3.87788018 8.626,4.06797235 L8.626,8.9343318 C8.626,9.77073733 7.98,10.4550691 7.106,10.4550691 L7.106,10.4550691 Z" id="Shape"></path>
                    <path d="M6.194,2.24308756 L5.586,2.24308756 L5.586,1.0264977 C5.586,0.83640553 5.472,0.72235023 5.282,0.72235023 L4.066,0.72235023 C3.876,0.72235023 3.762,0.83640553 3.762,1.0264977 L3.762,2.24308756 L3.154,2.24308756 L3.154,1.0264977 C3.154,0.532258065 3.572,0.1140553 4.066,0.1140553 L5.282,0.1140553 C5.776,0.1140553 6.194,0.532258065 6.194,1.0264977 L6.194,2.24308756 L6.194,2.24308756 Z" id="Shape"></path>
                    <path d="M2.85,8.63018433 C2.66,8.63018433 2.546,8.51612903 2.546,8.32603687 L2.546,5.89285714 C2.546,5.70276498 2.66,5.58870968 2.85,5.58870968 C3.04,5.58870968 3.154,5.70276498 3.154,5.89285714 L3.154,8.32603687 C3.154,8.51612903 3.04,8.63018433 2.85,8.63018433 L2.85,8.63018433 Z" id="Shape"></path>
                    <path d="M4.674,8.63018433 C4.484,8.63018433 4.37,8.51612903 4.37,8.32603687 L4.37,5.89285714 C4.37,5.70276498 4.484,5.58870968 4.674,5.58870968 C4.864,5.58870968 4.978,5.70276498 4.978,5.89285714 L4.978,8.32603687 C4.978,8.51612903 4.864,8.63018433 4.674,8.63018433 L4.674,8.63018433 Z" id="Shape"></path>
                    <path d="M6.498,8.63018433 C6.308,8.63018433 6.194,8.51612903 6.194,8.32603687 L6.194,5.89285714 C6.194,5.70276498 6.308,5.58870968 6.498,5.58870968 C6.688,5.58870968 6.802,5.70276498 6.802,5.89285714 L6.802,8.32603687 C6.802,8.51612903 6.688,8.63018433 6.498,8.63018433 L6.498,8.63018433 Z" id="Shape"></path>
                </g>
            </g>
        </g>
    </g>
</svg>