<?xml version="1.0" encoding="UTF-8" standalone="no"?>
<svg width="21px" height="16px" viewBox="0 0 21 16" version="1.1" xmlns="http://www.w3.org/2000/svg" xmlns:xlink="http://www.w3.org/1999/xlink" xmlns:sketch="http://www.bohemiancoding.com/sketch/ns">
    <!-- Generator: sketchtool 3.5.1 (25234) - http://www.bohemiancoding.com/sketch -->
    <title>icon-messages-off</title>
    <desc>Created with sketchtool.</desc>
    <defs></defs>
    <g id="Page-1" stroke="none" stroke-width="1" fill="none" fill-rule="evenodd" sketch:type="MSPage">
        <g id="Requests-&amp;-Quotes---View-Request" sketch:type="MSArtboardGroup" transform="translate(-717.000000, -267.000000)" fill="#9B9B9B">
            <g id="icon-messages-off" sketch:type="MSLayerGroup" transform="translate(717.000000, 267.000000)">
                <path d="M18.6917563,15.3799283 C18.2401434,15.3799283 17.8637993,15.2293907 17.4874552,14.9283154 L15.5304659,13.2724014 L4.24014337,13.2724014 C1.98207885,13.2724014 0.0250896057,11.3154122 0.0250896057,9.05734767 L0.0250896057,4.24014337 C0.0250896057,1.98207885 1.98207885,0.0250896057 4.24014337,0.0250896057 L16.2831541,0.0250896057 C18.5412186,0.0250896057 20.4982079,1.98207885 20.4982079,4.24014337 L20.4982079,13.6487455 C20.4982079,14.5519713 19.6702509,15.3799283 18.6917563,15.3799283 L18.6917563,15.3799283 Z M4.24014337,1.15412186 C2.58422939,1.15412186 1.22939068,2.50896057 1.22939068,4.16487455 L1.22939068,8.98207885 C1.22939068,10.6379928 2.58422939,11.9928315 4.24014337,11.9928315 L15.8315412,11.9928315 C15.9820789,11.9928315 16.0573477,11.9928315 16.2078853,12.1433692 L18.390681,14.1003584 C18.7670251,14.4767025 19.3691756,14.2508961 19.3691756,13.6487455 L19.3691756,4.24014337 C19.3691756,2.58422939 18.0143369,1.22939068 16.3584229,1.22939068 C16.2831541,1.15412186 4.24014337,1.15412186 4.24014337,1.15412186 L4.24014337,1.15412186 Z" id="Shape" sketch:type="MSShapeGroup"></path>
                <path d="M5.44444444,7.70250896 C5.21863799,7.70250896 4.99283154,7.55197133 4.84229391,7.47670251 C4.69175627,7.32616487 4.61648746,7.10035842 4.61648746,6.87455197 C4.61648746,6.64874552 4.76702509,6.42293907 4.84229391,6.27240143 C5.21863799,5.89605735 5.82078853,5.89605735 6.19713262,6.27240143 C6.34767025,6.42293907 6.42293907,6.64874552 6.42293907,6.87455197 C6.42293907,7.10035842 6.27240143,7.32616487 6.19713262,7.47670251 C5.97132616,7.55197133 5.74551971,7.70250896 5.44444444,7.70250896 L5.44444444,7.70250896 Z" id="Shape" sketch:type="MSShapeGroup"></path>
                <path d="M10.2616487,7.70250896 C10.0358423,7.70250896 9.81003584,7.55197133 9.65949821,7.47670251 C9.50896057,7.32616487 9.43369176,7.10035842 9.43369176,6.87455197 C9.43369176,6.64874552 9.58422939,6.42293907 9.65949821,6.27240143 C10.0358423,5.89605735 10.6379928,5.89605735 11.0143369,6.27240143 C11.1648746,6.42293907 11.2401434,6.64874552 11.2401434,6.87455197 C11.2401434,7.10035842 11.0896057,7.32616487 11.0143369,7.47670251 C10.7885305,7.55197133 10.562724,7.70250896 10.2616487,7.70250896 L10.2616487,7.70250896 Z" id="Shape" sketch:type="MSShapeGroup"></path>
                <path d="M15.078853,7.70250896 C14.8530466,7.70250896 14.6272401,7.55197133 14.4767025,7.47670251 C14.3261649,7.32616487 14.2508961,7.10035842 14.2508961,6.87455197 C14.2508961,6.64874552 14.4014337,6.42293907 14.4767025,6.27240143 C14.8530466,5.89605735 15.4551971,5.89605735 15.8315412,6.27240143 C15.9820789,6.42293907 16.0573477,6.64874552 16.0573477,6.87455197 C16.0573477,7.10035842 15.90681,7.32616487 15.8315412,7.47670251 C15.6057348,7.55197133 15.3799283,7.70250896 15.078853,7.70250896 L15.078853,7.70250896 Z" id="Shape" sketch:type="MSShapeGroup"></path>
            </g>
        </g>
    </g>
</svg>