<?xml version="1.0" encoding="UTF-8" standalone="no"?>
<svg width="13px" height="16px" viewBox="0 0 13 16" version="1.1" xmlns="http://www.w3.org/2000/svg" xmlns:xlink="http://www.w3.org/1999/xlink" xmlns:sketch="http://www.bohemiancoding.com/sketch/ns">
    <!-- Generator: sketchtool 3.5.1 (25234) - http://www.bohemiancoding.com/sketch -->
    <title>icon-user</title>
    <desc>Created with sketchtool.</desc>
    <defs></defs>
    <g id="Page-1" stroke="none" stroke-width="1" fill="none" fill-rule="evenodd" sketch:type="MSPage">
        <g id="Deals-&amp;-Promotions" sketch:type="MSArtboardGroup" transform="translate(-980.000000, -409.000000)" fill="#00AFB5">
            <g id="icon-user" sketch:type="MSLayerGroup" transform="translate(980.000000, 409.000000)">
                <path d="M6.45303323,9.14224022 C4.28176543,9.14224022 2.48271496,7.13846154 2.48271496,4.63373819 C2.48271496,2.12901484 4.28176543,0.125236167 6.45303323,0.125236167 C8.62430104,0.125236167 10.4233515,2.12901484 10.4233515,4.63373819 C10.4233515,7.13846154 8.62430104,9.14224022 6.45303323,9.14224022 L6.45303323,9.14224022 Z M6.45303323,1.12712551 C4.77805521,1.12712551 3.47529453,2.75519568 3.47529453,4.63373819 C3.47529453,6.5122807 4.77805521,8.14035088 6.45303323,8.14035088 C8.12801125,8.14035088 9.43077194,6.5122807 9.43077194,4.63373819 C9.43077194,2.75519568 8.12801125,1.12712551 6.45303323,1.12712551 L6.45303323,1.12712551 Z" id="Shape" sketch:type="MSShapeGroup"></path>
                <path d="M12.4085106,15.9676113 C12.0983295,15.9676113 11.9122209,15.7797571 11.9122209,15.4666667 L11.9122209,12.0852901 C11.9122209,10.2067476 10.4233515,8.70391363 8.56226481,8.70391363 L8.2520837,8.70391363 C7.94190258,8.70391363 7.75579392,8.51605938 7.75579392,8.20296896 C7.75579392,7.88987854 7.94190258,7.70202429 8.2520837,7.70202429 L8.62430104,7.70202429 C10.9816775,7.70202429 12.9668366,9.70580297 12.9668366,12.0852901 L12.9668366,15.4666667 C12.9048004,15.7797571 12.6566555,15.9676113 12.4085106,15.9676113 L12.4085106,15.9676113 Z" id="Shape" sketch:type="MSShapeGroup"></path>
                <path d="M0.497555829,15.9676113 C0.187374714,15.9676113 0.00126604537,15.7797571 0.00126604537,15.4666667 L0.00126604537,12.0852901 C0.00126604537,9.70580297 1.98642518,7.70202429 4.34380165,7.70202429 L4.71601899,7.70202429 C5.02620011,7.70202429 5.21230877,7.88987854 5.21230877,8.20296896 C5.21230877,8.51605938 5.02620011,8.70391363 4.71601899,8.70391363 L4.34380165,8.70391363 C2.48271496,8.70391363 0.993845613,10.2067476 0.993845613,12.0852901 L0.993845613,15.4666667 C0.993845613,15.7797571 0.745700721,15.9676113 0.497555829,15.9676113 L0.497555829,15.9676113 Z" id="Shape" sketch:type="MSShapeGroup"></path>
            </g>
        </g>
    </g>
</svg>