<?xml version="1.0" encoding="UTF-8" standalone="no"?>
<svg width="16px" height="20px" viewBox="0 0 16 20" version="1.1" xmlns="http://www.w3.org/2000/svg" xmlns:xlink="http://www.w3.org/1999/xlink" xmlns:sketch="http://www.bohemiancoding.com/sketch/ns">
    <!-- Generator: sketchtool 3.5.1 (25234) - http://www.bohemiancoding.com/sketch -->
    <title>icon-quote-off</title>
    <desc>Created with sketchtool.</desc>
    <defs></defs>
    <g id="Page-1" stroke="none" stroke-width="1" fill="none" fill-rule="evenodd" sketch:type="MSPage">
        <g id="Requests-&amp;-Quotes---View-Request" sketch:type="MSArtboardGroup" transform="translate(-589.000000, -266.000000)" fill="#9B9B9B">
            <g id="icon-quote-off" sketch:type="MSLayerGroup" transform="translate(589.000000, 266.000000)">
                <g id="Group" sketch:type="MSShapeGroup">
                    <path d="M12.3727273,20 L3.06363636,20 C1.46363636,20 0.154545455,18.6909091 0.154545455,17.0909091 L0.154545455,3.12727273 C0.154545455,1.52727273 1.46363636,0.218181818 3.06363636,0.218181818 L7.28181818,0.218181818 C7.71818182,0.218181818 8.22727273,0.436363636 8.59090909,0.654545455 L14.8454545,6.90909091 C15.2090909,7.27272727 15.2818182,7.70909091 15.2818182,8.21818182 L15.2818182,17.0909091 C15.2818182,18.6909091 14.0454545,20 12.3727273,20 L12.3727273,20 Z M3.06363636,1.38181818 C2.11818182,1.38181818 1.31818182,2.18181818 1.31818182,3.12727273 L1.31818182,17.0909091 C1.31818182,18.0363636 2.11818182,18.8363636 3.06363636,18.8363636 L12.3727273,18.8363636 C13.3181818,18.8363636 14.1181818,18.0363636 14.1181818,17.0909091 L14.1181818,8.21818182 C14.1181818,8.07272727 13.9727273,7.85454545 13.9727273,7.78181818 L7.71818182,1.52727273 C7.57272727,1.38181818 7.5,1.38181818 7.28181818,1.38181818 L3.06363636,1.38181818 L3.06363636,1.38181818 Z" id="Shape"></path>
                    <path d="M14.7,8.36363636 L10.0454545,8.36363636 C8.44545455,8.36363636 7.13636364,7.05454545 7.13636364,5.45454545 L7.13636364,0.8 C7.13636364,0.436363636 7.35454545,0.218181818 7.71818182,0.218181818 C8.08181818,0.218181818 8.3,0.436363636 8.3,0.8 L8.3,5.45454545 C8.3,6.4 9.1,7.2 10.0454545,7.2 L14.7,7.2 C15.0636364,7.2 15.2818182,7.41818182 15.2818182,7.78181818 C15.2818182,8.14545455 15.0636364,8.36363636 14.7,8.36363636 L14.7,8.36363636 Z" id="Shape"></path>
                </g>
                <path d="M6.84545455,15.7090909 C6.40909091,15.7090909 6.04545455,15.5636364 5.82727273,15.2727273 L4.51818182,13.9636364 C4.3,13.7454545 4.3,13.3818182 4.51818182,13.1636364 C4.73636364,12.9454545 5.1,12.9454545 5.31818182,13.1636364 L6.62727273,14.4727273 C6.77272727,14.6181818 6.84545455,14.6181818 6.84545455,14.6181818 C6.99090909,14.6181818 7.06363636,14.6181818 7.06363636,14.4727273 L10.1909091,11.3454545 C10.4090909,11.1272727 10.7727273,11.1272727 10.9909091,11.3454545 C11.2090909,11.5636364 11.2090909,11.9272727 10.9909091,12.1454545 L7.86363636,15.2727273 C7.64545455,15.4181818 7.28181818,15.7090909 6.84545455,15.7090909 L6.84545455,15.7090909 L6.84545455,15.7090909 Z" id="Shape" sketch:type="MSShapeGroup"></path>
            </g>
        </g>
    </g>
</svg>