<?xml version="1.0" encoding="UTF-8" standalone="no"?>
<svg width="18px" height="20px" viewBox="0 0 18 20" version="1.1" xmlns="http://www.w3.org/2000/svg" xmlns:xlink="http://www.w3.org/1999/xlink" xmlns:sketch="http://www.bohemiancoding.com/sketch/ns">
    <!-- Generator: sketchtool 3.5.1 (25234) - http://www.bohemiancoding.com/sketch -->
    <title>icon-notifications-off</title>
    <desc>Created with sketchtool.</desc>
    <defs></defs>
    <g id="Page-1" stroke="none" stroke-width="1" fill="none" fill-rule="evenodd" sketch:type="MSPage">
        <g id="Settings---General" sketch:type="MSArtboardGroup" transform="translate(-531.000000, -204.000000)" fill="#9B9B9B">
            <g id="icon-notifications-off" sketch:type="MSLayerGroup" transform="translate(531.410256, 204.000000)">
                <path d="M8.83076923,16.5846154 C4.66666667,16.5846154 0.215384615,15.6512821 0.215384615,13.7128205 C0.215384615,13.3538462 0.430769231,13.1384615 0.78974359,13.1384615 C1.72307692,13.1384615 2.51282051,12.3487179 2.51282051,11.4153846 L2.51282051,9.11794872 C2.51282051,5.67179487 5.38461538,2.8 8.83076923,2.8 C12.2769231,2.8 15.1487179,5.67179487 15.1487179,9.11794872 L15.1487179,11.4153846 C15.1487179,12.3487179 15.9384615,13.1384615 16.8717949,13.1384615 C17.2307692,13.1384615 17.4461538,13.3538462 17.4461538,13.7128205 C17.4461538,15.6512821 12.9948718,16.5846154 8.83076923,16.5846154 L8.83076923,16.5846154 Z M1.72307692,14.1435897 C2.65641026,14.7179487 4.95384615,15.4358974 8.83076923,15.4358974 C12.7076923,15.4358974 15.0051282,14.7179487 15.9384615,14.1435897 C14.7897436,13.7846154 14,12.6358974 14,11.4153846 L14,9.11794872 C14,6.24615385 11.7025641,3.94871795 8.83076923,3.94871795 C5.95897436,3.94871795 3.66153846,6.24615385 3.66153846,9.11794872 L3.66153846,11.4153846 C3.66153846,12.6358974 2.87179487,13.7128205 1.72307692,14.1435897 L1.72307692,14.1435897 Z" id="Shape" sketch:type="MSShapeGroup"></path>
                <path d="M8.83076923,19.4564103 C6.89230769,19.4564103 5.38461538,17.9487179 5.38461538,16.0102564 C5.38461538,15.6512821 5.6,15.4358974 5.95897436,15.4358974 C6.31794872,15.4358974 6.53333333,15.6512821 6.53333333,16.0102564 C6.53333333,17.3025641 7.53846154,18.3076923 8.83076923,18.3076923 C10.1230769,18.3076923 11.1282051,17.3025641 11.1282051,16.0102564 C11.1282051,15.6512821 11.3435897,15.4358974 11.7025641,15.4358974 C12.0615385,15.4358974 12.2769231,15.6512821 12.2769231,16.0102564 C12.2769231,17.9487179 10.8410256,19.4564103 8.83076923,19.4564103 L8.83076923,19.4564103 Z" id="Shape" sketch:type="MSShapeGroup"></path>
                <path d="M8.25641026,3.37435897 L8.25641026,1.07692308 C8.25641026,0.717948718 8.47179487,0.502564103 8.83076923,0.502564103 C9.18974359,0.502564103 9.40512821,0.717948718 9.40512821,1.07692308 L9.40512821,3.37435897 L8.25641026,3.37435897 L8.25641026,3.37435897 Z" id="Shape" sketch:type="MSShapeGroup"></path>
            </g>
        </g>
    </g>
</svg>