<?xml version="1.0" encoding="UTF-8" standalone="no"?>
<svg width="20px" height="20px" viewBox="0 0 20 20" version="1.1" xmlns="http://www.w3.org/2000/svg" xmlns:xlink="http://www.w3.org/1999/xlink" xmlns:sketch="http://www.bohemiancoding.com/sketch/ns">
    <!-- Generator: sketchtool 3.5.1 (25234) - http://www.bohemiancoding.com/sketch -->
    <title>icon-finished</title>
    <desc>Created with sketchtool.</desc>
    <defs></defs>
    <g id="Page-1" stroke="none" stroke-width="1" fill="none" fill-rule="evenodd" sketch:type="MSPage">
        <g id="Jobs---Job-Details---View-Job" sketch:type="MSArtboardGroup" transform="translate(-1198.000000, -1198.000000)">
            <g id="icon-finished" sketch:type="MSLayerGroup" transform="translate(1207.722222, 1208.000000) rotate(-5.000000) translate(-1207.722222, -1208.000000) translate(1198.000000, 1198.000000)">
                <g id="Group-Copy-4" fill="#00AFB5" sketch:type="MSShapeGroup">
                    <path d="M9.76803074,19.4558966 C4.45071973,19.4558966 0.125973431,15.1311503 0.125973431,9.81383926 C0.125973431,4.49652825 4.45071973,0.171781951 9.76803074,0.171781951 C15.0853418,0.171781951 19.4100881,4.49652825 19.4100881,9.81383926 C19.4100881,15.1311503 15.1562392,19.4558966 9.76803074,19.4558966 L9.76803074,19.4558966 Z" id="Shape"></path>
                </g>
                <g id="Group" transform="translate(3.888889, 3.888889)" fill="#FFFFFF" sketch:type="MSShapeGroup">
                    <path d="M11.0191571,4.17078189 L12.3869732,1.31790123 C12.4846743,1.17283951 12.3869732,0.979423868 12.289272,0.83436214 C12.1427203,0.737654321 11.947318,0.689300412 11.8007663,0.737654321 C11.8007663,0.737654321 10.7749042,1.36625514 9.40708812,1.36625514 C8.03927203,1.36625514 7.01340996,0.737654321 7.01340996,0.737654321 C6.91570881,0.737654321 5.74329502,0.012345679 4.18007663,0.012345679 C2.61685824,0.012345679 1.3467433,0.737654321 1.3467433,0.737654321 C1.24904215,0.83436214 1.20019157,0.979423868 1.20019157,1.07613169 L1.20019157,10.4567901 L0.5651341,10.4567901 C0.320881226,10.4567901 0.174329502,10.6018519 0.174329502,10.8436214 C0.174329502,11.0853909 0.320881226,11.2304527 0.5651341,11.2304527 L2.56800766,11.2304527 C2.81226054,11.2304527 2.95881226,11.0853909 2.95881226,10.8436214 C2.95881226,10.6018519 2.81226054,10.4567901 2.56800766,10.4567901 L1.98180077,10.4567901 L1.98180077,6.54012346 C2.37260536,6.39506173 3.20306513,5.95987654 4.2289272,5.95987654 C5.5967433,5.95987654 6.62260536,6.58847737 6.62260536,6.58847737 C6.72030651,6.58847737 7.89272031,7.31378601 9.4559387,7.31378601 C10.9703065,7.31378601 12.289272,6.58847737 12.289272,6.58847737 C12.3869732,6.49176955 12.4358238,6.44341564 12.4358238,6.34670782 C12.4358238,6.25 12.4358238,6.20164609 12.3869732,6.10493827 L11.0191571,4.17078189 Z M9.40708812,6.58847737 C8.03927203,6.58847737 7.01340996,5.95987654 7.01340996,5.95987654 C6.91570881,5.95987654 5.74329502,5.2345679 4.18007663,5.2345679 C3.30076628,5.2345679 2.47030651,5.47633745 1.93295019,5.718107 L1.93295019,1.41460905 C2.32375479,1.26954733 3.15421456,0.83436214 4.18007663,0.83436214 C5.54789272,0.83436214 6.57375479,1.46296296 6.57375479,1.46296296 C6.67145594,1.46296296 7.84386973,2.1882716 9.40708812,2.1882716 C10.1398467,2.1882716 10.6772031,2.04320988 11.1657088,1.84979424 L10.1886973,3.97736626 C10.0909962,4.12242798 10.0909962,4.31584362 10.1886973,4.36419753 L11.4099617,6.10493827 C11.0191571,6.34670782 10.2863985,6.58847737 9.40708812,6.58847737 L9.40708812,6.58847737 Z" id="Shape"></path>
                </g>
                <path d="M5.55555556,5 L7.77777778,4.60120476 L7.77777778,6.38888889 L5.48458137,6.70891507 L5.55555556,5 Z" id="Rectangle-751" fill="#FFFFFF" sketch:type="MSShapeGroup"></path>
                <path d="M7.77777778,6.38888889 L10,6.5110902 L10,8.04081705 L7.77777778,7.9471005 L7.77777778,6.38888889 Z" id="Rectangle-751-Copy-2" fill="#FFFFFF" sketch:type="MSShapeGroup"></path>
                <path d="M12.2222222,7.22222222 L14.4444444,7.34442353 L14.4444444,8.87415038 L12.2222222,8.78043383 L12.2222222,7.22222222 Z" id="Rectangle-751-Copy-5" fill="#FFFFFF" sketch:type="MSShapeGroup"></path>
                <path d="M10,5 L12.128644,5.7445189 L12.128644,7.23518107 L10,6.55821161 L10,5 Z" id="Rectangle-751-Copy-3" fill="#FFFFFF" sketch:type="MSShapeGroup"></path>
                <path d="M10,8.05555556 L12.128644,8.80007446 L12.1816602,10.4754292 L10,9.61376717 L10,8.05555556 Z" id="Rectangle-751-Copy-4" fill="#FFFFFF" sketch:type="MSShapeGroup"></path>
                <path d="M5.55555556,8.33333333 L7.77777778,7.93453809 L7.77777778,9.72222222 L5.48458137,10.0422484 L5.55555556,8.33333333 Z" id="Rectangle-751-Copy" fill="#FFFFFF" sketch:type="MSShapeGroup"></path>
            </g>
        </g>
    </g>
</svg>