<?xml version="1.0" encoding="UTF-8" standalone="no"?>
<svg width="25px" height="25px" viewBox="0 0 25 25" version="1.1" xmlns="http://www.w3.org/2000/svg" xmlns:xlink="http://www.w3.org/1999/xlink" xmlns:sketch="http://www.bohemiancoding.com/sketch/ns">
    <!-- Generator: sketchtool 3.5.1 (25234) - http://www.bohemiancoding.com/sketch -->
    <title>icon-next</title>
    <desc>Created with sketchtool.</desc>
    <defs></defs>
    <g id="Page-1" stroke="none" stroke-width="1" fill="none" fill-rule="evenodd" sketch:type="MSPage">
        <g id="Requests-&amp;-Quotes---Quote--Details" sketch:type="MSArtboardGroup" transform="translate(-807.000000, -641.000000)" fill="#FFFFFF">
            <g id="icon-next" sketch:type="MSLayerGroup" transform="translate(807.000000, 641.000000)">
                <path d="M12.3969308,24.7938617 C5.56038809,24.7938617 0,19.2334736 0,12.3969308 C0,5.56038809 5.56038809,0 12.3969308,0 C19.2334736,0 24.7938617,5.56038809 24.7938617,12.3969308 C24.7938617,19.2334736 19.3246275,24.7938617 12.3969308,24.7938617 L12.3969308,24.7938617 Z M12.3969308,0.795080973 C6.01591341,0.795080973 0.795080973,6.01591341 0.795080973,12.3969308 C0.795080973,18.7779482 6.01591341,23.9987807 12.3969308,23.9987807 C18.7779482,23.9987807 23.9987807,18.7779482 23.9987807,12.3969308 C23.9987807,6.01591341 18.7779482,0.795080973 12.3969308,0.795080973 L12.3969308,0.795080973 Z" id="Shape" sketch:type="MSShapeGroup"></path>
                <path d="M14.365587,17.6112287 L10.3884877,13.6341294 C9.95853105,13.2041727 9.7972973,12.6667269 9.7972973,12.0755365 C9.7972973,11.484346 10.0660202,10.9469002 10.3884877,10.5169435 L14.365587,6.53984423 C14.5268207,6.37861048 14.7955437,6.37861048 14.9567774,6.53984423 C15.1180112,6.70107799 15.1180112,6.96980091 14.9567774,7.13103467 L10.9796782,11.1081339 C10.4422323,11.6455798 10.4422323,12.398004 10.9796782,12.9354498 L14.9567774,16.9125491 C15.1180112,17.0737828 15.1180112,17.3425058 14.9567774,17.5037395 C14.9567774,17.7187178 14.7955437,17.7187178 14.6880545,17.7187178 C14.5805653,17.7187178 14.4193316,17.7187178 14.365587,17.6112287 Z" id="Shape" sketch:type="MSShapeGroup" transform="translate(12.437500, 12.068818) scale(-1, 1) translate(-12.437500, -12.068818) "></path>
            </g>
        </g>
    </g>
</svg>