<?xml version="1.0" encoding="UTF-8" standalone="no"?>
<svg width="16px" height="15px" viewBox="0 0 16 15" version="1.1" xmlns="http://www.w3.org/2000/svg" xmlns:xlink="http://www.w3.org/1999/xlink" xmlns:sketch="http://www.bohemiancoding.com/sketch/ns">
    <!-- Generator: sketchtool 3.5.1 (25234) - http://www.bohemiancoding.com/sketch -->
    <title>icon-alert</title>
    <desc>Created with sketchtool.</desc>
    <defs></defs>
    <g id="Page-1" stroke="none" stroke-width="1" fill="none" fill-rule="evenodd" sketch:type="MSPage">
        <g id="Claims" sketch:type="MSArtboardGroup" transform="translate(-1051.000000, -299.000000)">
            <g id="icon-alert" sketch:type="MSLayerGroup" transform="translate(1051.000000, 299.000000)">
                <path d="M13.6,14.4571429 L2.8,14.4571429 C2,14.4571429 1.14285714,14 0.8,13.2571429 C0.342857143,12.5142857 0.342857143,11.6 0.8,10.8571429 L6.17142857,1.42857143 C6.62857143,0.685714286 7.37142857,0.228571429 8.17142857,0.228571429 C8.97142857,0.228571429 9.82857143,0.685714286 10.1714286,1.42857143 L15.5428571,10.8571429 C16,11.6 16,12.5142857 15.5428571,13.2571429 C15.2571429,14 14.5142857,14.4571429 13.6,14.4571429 L13.6,14.4571429 Z" id="Path" fill="#444444" sketch:type="MSShapeGroup"></path>
                <path d="M8.17142857,1.25714286 C7.6,1.25714286 7.14285714,1.54285714 6.97142857,2 L1.6,11.4285714 C1.31428571,11.8857143 1.31428571,12.4571429 1.6,12.9142857 C1.88571429,13.3714286 2.34285714,13.6571429 2.8,13.6571429 L13.6571429,13.6571429 C14.2285714,13.6571429 14.6857143,13.3714286 14.8571429,12.9142857 C15.1428571,12.4571429 15.1428571,11.8857143 14.8571429,11.4285714 L9.48571429,2 C9.2,1.54285714 8.74285714,1.25714286 8.17142857,1.25714286 L8.17142857,1.25714286 Z" id="Path" fill="#F8E81C" sketch:type="MSShapeGroup"></path>
                <g id="Group" transform="translate(7.428571, 4.571429)" fill="#444444" sketch:type="MSShapeGroup">
                    <path d="M0.742857143,4.68571429 C0.457142857,4.68571429 0.285714286,4.51428571 0.285714286,4.22857143 L0.285714286,0.914285714 C0.285714286,0.628571429 0.457142857,0.457142857 0.742857143,0.457142857 C1.02857143,0.457142857 1.2,0.628571429 1.2,0.914285714 L1.2,4.22857143 C1.2,4.45714286 1.02857143,4.68571429 0.742857143,4.68571429 L0.742857143,4.68571429 Z" id="Shape"></path>
                    <path d="M0.742857143,7.02857143 C0.628571429,7.02857143 0.457142857,7.02857143 0.4,6.91428571 C0.285714286,6.8 0.285714286,6.74285714 0.285714286,6.57142857 C0.285714286,6.45714286 0.285714286,6.28571429 0.4,6.22857143 C0.571428571,6.05714286 0.857142857,6.05714286 1.02857143,6.22857143 C1.14285714,6.34285714 1.14285714,6.4 1.14285714,6.57142857 C1.14285714,6.68571429 1.02857143,6.85714286 0.971428571,6.91428571 C1.02857143,7.02857143 0.857142857,7.02857143 0.742857143,7.02857143 L0.742857143,7.02857143 Z" id="Shape"></path>
                </g>
            </g>
        </g>
    </g>
</svg>