<?xml version="1.0" encoding="UTF-8" standalone="no"?>
<svg width="22px" height="14px" viewBox="0 0 22 14" version="1.1" xmlns="http://www.w3.org/2000/svg" xmlns:xlink="http://www.w3.org/1999/xlink" xmlns:sketch="http://www.bohemiancoding.com/sketch/ns">
    <!-- Generator: sketchtool 3.5.1 (25234) - http://www.bohemiancoding.com/sketch -->
    <title>icon-privacy-on</title>
    <desc>Created with sketchtool.</desc>
    <defs></defs>
    <g id="Page-1" stroke="none" stroke-width="1" fill="none" fill-rule="evenodd" sketch:type="MSPage">
        <g id="Settings---Privacy" sketch:type="MSArtboardGroup" transform="translate(-680.000000, -209.000000)" fill="#00AFB5">
            <g id="icon-privacy-on" sketch:type="MSLayerGroup" transform="translate(680.000000, 209.000000)">
                <path d="M11.0959055,13.1413329 C6.51444686,13.1413329 2.68404698,9.93066636 0.731294095,7.98933308 C-0.0197647053,7.24266644 -0.0197647053,5.97333315 0.731294095,5.2266665 C2.68404698,3.28533323 6.51444686,0.0746666643 11.0959055,0.0746666643 C15.6773642,0.0746666643 19.5077641,3.28533323 21.460517,5.2266665 C22.2115758,5.97333315 22.2115758,7.24266644 21.460517,7.98933308 C19.5077641,9.93066636 15.6773642,13.1413329 11.0959055,13.1413329 L11.0959055,13.1413329 Z M11.0959055,1.19466663 C6.7397645,1.19466663 3.05957638,4.55466652 1.63256465,5.97333315 C1.25703525,6.34666647 1.25703525,6.79466645 1.63256465,7.01866645 C3.05957638,8.43733307 6.81487038,11.797333 11.0959055,11.797333 C15.3769407,11.797333 19.1322347,8.43733307 20.5592464,7.01866645 C20.9347758,6.64533313 20.9347758,6.19733314 20.5592464,5.97333315 C19.2073406,4.55466652 15.4520466,1.19466663 11.0959055,1.19466663 L11.0959055,1.19466663 Z" id="Shape" sketch:type="MSShapeGroup"></path>
                <path d="M11.0959055,9.55733303 C9.44357618,9.55733303 8.09167034,8.21333308 8.09167034,6.57066646 C8.09167034,4.92799985 9.44357618,3.58399989 11.0959055,3.58399989 C12.7482349,3.58399989 14.1001407,4.92799985 14.1001407,6.57066646 C14.1001407,8.21333308 12.8233408,9.55733303 11.0959055,9.55733303 L11.0959055,9.55733303 Z M11.0959055,4.77866652 C10.1195291,4.77866652 9.29336442,5.59999983 9.29336442,6.57066646 C9.29336442,7.5413331 10.1195291,8.36266641 11.0959055,8.36266641 C12.072282,8.36266641 12.8984467,7.5413331 12.8984467,6.57066646 C12.8984467,5.59999983 12.072282,4.77866652 11.0959055,4.77866652 L11.0959055,4.77866652 Z" id="Shape" sketch:type="MSShapeGroup"></path>
            </g>
        </g>
    </g>
</svg>