<?xml version="1.0" encoding="UTF-8" standalone="no"?>
<svg width="33px" height="23px" viewBox="0 0 33 23" version="1.1" xmlns="http://www.w3.org/2000/svg" xmlns:xlink="http://www.w3.org/1999/xlink" xmlns:sketch="http://www.bohemiancoding.com/sketch/ns">
    <!-- Generator: sketchtool 3.5.1 (25234) - http://www.bohemiancoding.com/sketch -->
    <title>logo-credit-card-generic</title>
    <desc>Created with sketchtool.</desc>
    <defs></defs>
    <g id="Page-1" stroke="none" stroke-width="1" fill="none" fill-rule="evenodd" sketch:type="MSPage">
        <g id="Settings---Payment" sketch:type="MSArtboardGroup" transform="translate(-499.000000, -290.000000)" fill="#00AFB5">
            <g id="logo-credit-card-generic" sketch:type="MSLayerGroup" transform="translate(499.400000, 289.950000)">
                <path d="M29.0144896,22.6742122 L2.99853543,22.6742122 C1.48868095,22.6742122 0.211111774,21.3951541 0.211111774,19.88354 L0.211111774,3.13950631 C0.211111774,1.62789216 1.48868095,0.348834035 2.99853543,0.348834035 L29.0144896,0.348834035 C30.524344,0.348834035 31.8019132,1.62789216 31.8019132,3.13950631 L31.8019132,19.88354 C31.8019132,21.3951541 30.524344,22.6742122 29.0144896,22.6742122 L29.0144896,22.6742122 Z M2.99853543,2.20928222 C2.41782217,2.20928222 2.06939421,2.55811625 2.06939421,3.13950631 L2.06939421,19.88354 C2.06939421,20.46493 2.41782217,20.8137641 2.99853543,20.8137641 L29.0144896,20.8137641 C29.5952028,20.8137641 29.9436308,20.46493 29.9436308,19.88354 L29.9436308,3.13950631 C29.9436308,2.55811625 29.5952028,2.20928222 29.0144896,2.20928222 L2.99853543,2.20928222 L2.99853543,2.20928222 Z" id="Shape" sketch:type="MSShapeGroup"></path>
                <rect id="Rectangle-path" sketch:type="MSShapeGroup" x="1.14025299" y="4.65112046" width="29.732519" height="1.86044818"></rect>
                <rect id="Rectangle-path" sketch:type="MSShapeGroup" x="1.14025299" y="7.90690478" width="29.732519" height="1.86044818"></rect>
                <path d="M9.96709457,14.0696394 L5.08910317,14.0696394 C4.50838991,14.0696394 4.15996195,13.7208054 4.15996195,13.1394153 C4.15996195,12.5580252 4.50838991,12.2091912 5.08910317,12.2091912 L9.96709457,12.2091912 C10.5478078,12.2091912 10.8962358,12.5580252 10.8962358,13.1394153 C10.8962358,13.7208054 10.4316652,14.0696394 9.96709457,14.0696394 L9.96709457,14.0696394 Z" id="Shape" sketch:type="MSShapeGroup"></path>
                <path d="M16.4710831,18.0230918 L5.08910317,18.0230918 C4.50838991,18.0230918 4.15996195,17.6742578 4.15996195,17.0928677 C4.15996195,16.5114776 4.50838991,16.1626436 5.08910317,16.1626436 L16.4710831,16.1626436 C17.0517964,16.1626436 17.4002243,16.5114776 17.4002243,17.0928677 C17.4002243,17.6742578 16.8195111,18.0230918 16.4710831,18.0230918 L16.4710831,18.0230918 Z" id="Shape" sketch:type="MSShapeGroup"></path>
            </g>
        </g>
    </g>
</svg>