<?xml version="1.0" encoding="UTF-8" standalone="no"?>
<svg width="10px" height="5px" viewBox="0 0 10 5" version="1.1" xmlns="http://www.w3.org/2000/svg" xmlns:xlink="http://www.w3.org/1999/xlink" xmlns:sketch="http://www.bohemiancoding.com/sketch/ns">
    <!-- Generator: sketchtool 3.5.1 (25234) - http://www.bohemiancoding.com/sketch -->
    <title>arrow-down-mini copy 3</title>
    <desc>Created with sketchtool.</desc>
    <defs></defs>
    <g id="Page-1" stroke="none" stroke-width="1" fill="none" fill-rule="evenodd" sketch:type="MSPage">
        <g id="My-Services" sketch:type="MSArtboardGroup" transform="translate(-808.000000, -298.000000)" fill="#00AFB5">
            <g id="arrow-down-mini-copy-3" sketch:type="MSLayerGroup" transform="translate(808.000000, 298.000000)">
                <path d="M5.04796163,4.71223022 C4.52038369,4.71223022 4.04076739,4.47242206 3.65707434,4.18465228 L0.107913669,0.635491607 C-0.035971223,0.491606715 -0.035971223,0.251798561 0.107913669,0.107913669 C0.251798561,-0.035971223 0.491606715,-0.035971223 0.635491607,0.107913669 L4.18465228,3.65707434 C4.66426859,4.13669065 5.33573141,4.13669065 5.81534772,3.65707434 L9.36450839,0.107913669 C9.50839329,-0.035971223 9.74820144,-0.035971223 9.89208633,0.107913669 C10.0359712,0.251798561 10.0359712,0.491606715 9.89208633,0.635491607 L6.34292566,4.18465228 C6.05515588,4.47242206 5.57553957,4.71223022 5.04796163,4.71223022 L5.04796163,4.71223022 Z" id="Shape" sketch:type="MSShapeGroup"></path>
            </g>
        </g>
    </g>
</svg>