<?xml version="1.0" encoding="UTF-8" standalone="no"?>
<svg width="12px" height="10px" viewBox="0 0 12 10" version="1.1" xmlns="http://www.w3.org/2000/svg" xmlns:xlink="http://www.w3.org/1999/xlink" xmlns:sketch="http://www.bohemiancoding.com/sketch/ns">
    <!-- Generator: sketchtool 3.5.1 (25234) - http://www.bohemiancoding.com/sketch -->
    <title>icon-camera</title>
    <desc>Created with sketchtool.</desc>
    <defs></defs>
    <g id="Page-1" stroke="none" stroke-width="1" fill="none" fill-rule="evenodd" sketch:type="MSPage">
        <g id="Profile---Info" sketch:type="MSArtboardGroup" transform="translate(-418.000000, -210.000000)" fill="#FFFFFF">
            <g id="Group-6" sketch:type="MSLayerGroup" transform="translate(414.000000, 205.000000)">
                <g id="icon-camera" transform="translate(4.407871, 5.499018)" sketch:type="MSShapeGroup">
                    <path d="M5.57848953,6.87422671 C4.4737031,6.87422671 3.61442476,6.01494837 3.61442476,4.91016193 C3.61442476,3.8053755 4.4737031,2.94609716 5.57848953,2.94609716 C6.68327597,2.94609716 7.54255431,3.8053755 7.54255431,4.91016193 C7.54255431,6.01494837 6.72419398,6.87422671 5.57848953,6.87422671 L5.57848953,6.87422671 Z M5.57848953,3.60078542 C4.84196524,3.60078542 4.26911302,4.17363764 4.26911302,4.91016193 C4.26911302,5.64668622 4.84196524,6.21953845 5.57848953,6.21953845 C6.31501382,6.21953845 6.88786605,5.64668622 6.88786605,4.91016193 C6.88786605,4.17363764 6.31501382,3.60078542 5.57848953,3.60078542 L5.57848953,3.60078542 Z" id="Shape"></path>
                    <path d="M10.1613073,8.83829148 L0.995671726,8.83829148 C0.463737516,8.83829148 0.0136393387,8.38819331 0.0136393387,7.8562591 L0.0136393387,2.49599898 C0.0136393387,1.96406477 0.463737516,1.5139666 0.995671726,1.5139666 L2.55055634,1.5139666 C2.75514642,1.5139666 2.87790047,1.39121255 2.87790047,1.18662247 L2.87790047,1.06386842 C2.87790047,0.53193421 3.32799864,0.0818360322 3.85993285,0.0818360322 L7.33796422,0.0818360322 C7.86989843,0.0818360322 8.31999661,0.53193421 8.31999661,1.06386842 L8.31999661,1.18662247 C8.31999661,1.39121255 8.44275066,1.5139666 8.64734074,1.5139666 L10.1613073,1.5139666 C10.6932415,1.5139666 11.1433397,1.96406477 11.1433397,2.49599898 L11.1433397,7.8562591 C11.1433397,8.38819331 10.6932415,8.83829148 10.1613073,8.83829148 L10.1613073,8.83829148 Z M0.995671726,2.16865485 C0.791081645,2.16865485 0.668327597,2.2914089 0.668327597,2.49599898 L0.668327597,7.8562591 C0.668327597,8.06084918 0.791081645,8.18360322 0.995671726,8.18360322 L10.1613073,8.18360322 C10.3658974,8.18360322 10.4886515,8.06084918 10.4886515,7.8562591 L10.4886515,2.49599898 C10.4886515,2.2914089 10.3658974,2.16865485 10.1613073,2.16865485 L8.60642272,2.16865485 C8.07448851,2.16865485 7.62439034,1.71855668 7.62439034,1.18662247 L7.62439034,1.06386842 C7.62439034,0.859278339 7.50163629,0.73652429 7.29704621,0.73652429 L3.81901484,0.73652429 C3.61442476,0.73652429 3.49167071,0.859278339 3.49167071,1.06386842 L3.49167071,1.18662247 C3.49167071,1.71855668 3.04157253,2.16865485 2.50963832,2.16865485 L0.995671726,2.16865485 L0.995671726,2.16865485 Z" id="Shape"></path>
                </g>
            </g>
        </g>
    </g>
</svg>