<?xml version="1.0" encoding="UTF-8" standalone="no"?>
<svg width="25px" height="25px" viewBox="0 0 25 25" version="1.1" xmlns="http://www.w3.org/2000/svg" xmlns:xlink="http://www.w3.org/1999/xlink" xmlns:sketch="http://www.bohemiancoding.com/sketch/ns">
    <!-- Generator: sketchtool 3.5.1 (25234) - http://www.bohemiancoding.com/sketch -->
    <title>icon-cancel</title>
    <desc>Created with sketchtool.</desc>
    <defs></defs>
    <g id="Page-1" stroke="none" stroke-width="1" fill="none" fill-rule="evenodd" sketch:type="MSPage">
        <g id="Settings---Payment---Card" sketch:type="MSArtboardGroup" transform="translate(-657.000000, -503.000000)" fill="#FFFFFF">
            <g id="Group-8" sketch:type="MSLayerGroup" transform="translate(585.000000, 496.000000)">
                <g id="icon-cancel" transform="translate(72.000000, 7.000000)" sketch:type="MSShapeGroup">
                    <path d="M12.3969308,24.7938617 C5.56038809,24.7938617 0,19.2334736 0,12.3969308 C0,5.56038809 5.56038809,0 12.3969308,0 C19.2334736,0 24.7938617,5.56038809 24.7938617,12.3969308 C24.7938617,19.2334736 19.3246275,24.7938617 12.3969308,24.7938617 L12.3969308,24.7938617 Z M12.3969308,0.795080973 C6.01591341,0.795080973 0.795080973,6.01591341 0.795080973,12.3969308 C0.795080973,18.7779482 6.01591341,23.9987807 12.3969308,23.9987807 C18.7779482,23.9987807 23.9987807,18.7779482 23.9987807,12.3969308 C23.9987807,6.01591341 18.7779482,0.795080973 12.3969308,0.795080973 L12.3969308,0.795080973 Z" id="Shape"></path>
                    <g id="Group-Copy" transform="translate(12.158924, 12.485281) rotate(-315.000000) translate(-12.158924, -12.485281) translate(6.158924, 6.485281)">
                        <path d="M10.6926011,6.61300895 L1.30366629,6.61300895 C0.71685786,6.61300895 0.364772805,6.26462547 0.364772805,5.68398634 C0.364772805,5.1033472 0.71685786,4.75496372 1.30366629,4.75496372 L10.6926011,4.75496372 C11.2794095,4.75496372 11.6314946,5.1033472 11.6314946,5.68398634 C11.6314946,6.26462547 11.2794095,6.61300895 10.6926011,6.61300895 L10.6926011,6.61300895 Z" id="Shape"></path>
                        <path d="M5.99813369,11.258122 C5.41132526,11.258122 5.05924021,10.9097386 5.05924021,10.3290994 L5.05924021,1.03887326 C5.05924021,0.458234128 5.41132526,0.109850647 5.99813369,0.109850647 C6.58494211,0.109850647 6.93702717,0.458234128 6.93702717,1.03887326 L6.93702717,10.3290994 C6.93702717,10.9097386 6.58494211,11.258122 5.99813369,11.258122 L5.99813369,11.258122 Z" id="Shape"></path>
                    </g>
                </g>
            </g>
        </g>
    </g>
</svg>