<?xml version="1.0" encoding="UTF-8" standalone="no"?>
<svg width="25px" height="25px" viewBox="0 0 25 25" version="1.1" xmlns="http://www.w3.org/2000/svg" xmlns:xlink="http://www.w3.org/1999/xlink" xmlns:sketch="http://www.bohemiancoding.com/sketch/ns">
    <!-- Generator: sketchtool 3.5.1 (25234) - http://www.bohemiancoding.com/sketch -->
    <title>icon-save</title>
    <desc>Created with sketchtool.</desc>
    <defs></defs>
    <g id="Page-1" stroke="none" stroke-width="1" fill="none" fill-rule="evenodd" sketch:type="MSPage">
        <g id="Sign-In" sketch:type="MSArtboardGroup" transform="translate(-737.000000, -587.000000)" fill="#FFFFFF">
            <g id="Group-10" sketch:type="MSLayerGroup" transform="translate(663.000000, 580.000000)">
                <g id="icon-save" transform="translate(74.000000, 7.000000)" sketch:type="MSShapeGroup">
                    <path d="M12.3969308,24.7938617 C5.56038809,24.7938617 0,19.2334736 0,12.3969308 C0,5.56038809 5.56038809,0 12.3969308,0 C19.2334736,0 24.7938617,5.56038809 24.7938617,12.3969308 C24.7938617,19.2334736 19.3246275,24.7938617 12.3969308,24.7938617 L12.3969308,24.7938617 Z M12.3969308,0.795080973 C6.01591341,0.795080973 0.795080973,6.01591341 0.795080973,12.3969308 C0.795080973,18.7779482 6.01591341,23.9987807 12.3969308,23.9987807 C18.7779482,23.9987807 23.9987807,18.7779482 23.9987807,12.3969308 C23.9987807,6.01591341 18.7779482,0.795080973 12.3969308,0.795080973 L12.3969308,0.795080973 Z" id="Shape"></path>
                    <path d="M8.81550802,16.2078001 L6.31283422,13.5813041 C5.89572193,13.1435547 5.89572193,12.4139725 6.31283422,11.9762232 C6.72994652,11.5384738 7.42513369,11.5384738 7.84224599,11.9762232 L10.3449198,14.6027192 C10.6229947,14.8945521 10.6229947,14.8945521 10.7620321,14.8945521 C11.040107,14.8945521 11.1791444,14.8945521 11.1791444,14.6027192 L17.157754,8.328312 C17.5748663,7.89056267 18.2700535,7.89056267 18.6871658,8.328312 C19.1042781,8.76606134 19.1042781,9.49564358 18.6871658,9.93339292 L12.7085561,16.2078001 C12.2914439,16.6455495 11.5962567,17.0832988 10.7620321,17.0832988 C9.92780749,17.0832988 9.23262032,16.7914659 8.81550802,16.2078001 Z" id="Shape"></path>
                </g>
            </g>
        </g>
    </g>
</svg>