<?xml version="1.0" encoding="UTF-8" standalone="no"?>
<svg width="27px" height="26px" viewBox="0 0 27 26" version="1.1" xmlns="http://www.w3.org/2000/svg" xmlns:xlink="http://www.w3.org/1999/xlink" xmlns:sketch="http://www.bohemiancoding.com/sketch/ns">
    <!-- Generator: sketchtool 3.5.1 (25234) - http://www.bohemiancoding.com/sketch -->
    <title>icon-messages</title>
    <desc>Created with sketchtool.</desc>
    <defs></defs>
    <g id="Page-1" stroke="none" stroke-width="1" fill="none" fill-rule="evenodd" sketch:type="MSPage">
        <g id="Deals-&amp;-Promotions" sketch:type="MSArtboardGroup" transform="translate(-1070.000000, -504.000000)">
            <g id="icon-messages" sketch:type="MSLayerGroup" transform="translate(1071.000000, 504.000000)">
                <g id="Group-Copy" transform="translate(3.431818, 10.843750)" fill="#00AFB5" sketch:type="MSShapeGroup">
                    <path d="M10.7327086,8.88079024 C10.4801743,8.88079024 10.269729,8.79661213 10.0592837,8.62825592 L8.96496835,7.70229675 L2.65161036,7.70229675 C1.38893876,7.70229675 0.294623373,6.60798136 0.294623373,5.34530977 L0.294623373,2.65161036 C0.294623373,1.38893876 1.38893876,0.294623373 2.65161036,0.294623373 L9.38585888,0.294623373 C10.6485305,0.294623373 11.7428459,1.38893876 11.7428459,2.65161036 L11.7428459,7.91274202 C11.7428459,8.41781066 11.2798663,8.88079024 10.7327086,8.88079024 L10.7327086,8.88079024 Z M2.65161036,0.925959172 C1.72565118,0.925959172 0.968048225,1.68356213 0.968048225,2.6095213 L0.968048225,5.30322071 C0.968048225,6.22917988 1.72565118,6.98678284 2.65161036,6.98678284 L9.13332456,6.98678284 C9.21750267,6.98678284 9.25959172,6.98678284 9.34376983,7.07096095 L10.5643524,8.16527634 C10.7747976,8.3757216 11.1115101,8.24945444 11.1115101,7.91274202 L11.1115101,2.65161036 C11.1115101,1.72565118 10.3539071,0.968048225 9.42794793,0.968048225 C9.38585888,0.925959172 2.65161036,0.925959172 2.65161036,0.925959172 L2.65161036,0.925959172 Z" id="Shape"></path>
                    <path d="M3.32503521,4.58770681 C3.19876805,4.58770681 3.07250089,4.5035287 2.98832278,4.46143965 C2.90414468,4.37726154 2.86205562,4.25099438 2.86205562,4.12472722 C2.86205562,3.99846006 2.94623373,3.8721929 2.98832278,3.78801479 C3.19876805,3.57756953 3.53548048,3.57756953 3.74592574,3.78801479 C3.83010385,3.8721929 3.8721929,3.99846006 3.8721929,4.12472722 C3.8721929,4.25099438 3.78801479,4.37726154 3.74592574,4.46143965 C3.61965858,4.5035287 3.49339142,4.58770681 3.32503521,4.58770681 L3.32503521,4.58770681 Z" id="Shape"></path>
                    <path d="M6.01873462,4.58770681 C5.89246746,4.58770681 5.7662003,4.5035287 5.68202219,4.46143965 C5.59784409,4.37726154 5.55575503,4.25099438 5.55575503,4.12472722 C5.55575503,3.99846006 5.63993314,3.8721929 5.68202219,3.78801479 C5.89246746,3.57756953 6.22917988,3.57756953 6.43962515,3.78801479 C6.52380326,3.8721929 6.56589231,3.99846006 6.56589231,4.12472722 C6.56589231,4.25099438 6.4817142,4.37726154 6.43962515,4.46143965 C6.31335799,4.5035287 6.18709083,4.58770681 6.01873462,4.58770681 L6.01873462,4.58770681 Z" id="Shape"></path>
                    <path d="M8.71243403,4.58770681 C8.58616687,4.58770681 8.45989971,4.5035287 8.3757216,4.46143965 C8.2915435,4.37726154 8.24945444,4.25099438 8.24945444,4.12472722 C8.24945444,3.99846006 8.33363255,3.8721929 8.3757216,3.78801479 C8.58616687,3.57756953 8.92287929,3.57756953 9.13332456,3.78801479 C9.21750267,3.8721929 9.25959172,3.99846006 9.25959172,4.12472722 C9.25959172,4.25099438 9.17541361,4.37726154 9.13332456,4.46143965 C9.0070574,4.5035287 8.88079024,4.58770681 8.71243403,4.58770681 L8.71243403,4.58770681 Z" id="Shape"></path>
                </g>
                <ellipse id="Oval-27-Copy-3" stroke="#00AFB5" sketch:type="MSShapeGroup" cx="10" cy="14.8125" rx="10" ry="10"></ellipse>
                <ellipse id="Oval-27-Copy-4" fill="#00AFB5" sketch:type="MSShapeGroup" cx="18.84375" cy="6.5625" rx="6.5625" ry="6.5625"></ellipse>
            </g>
        </g>
    </g>
</svg>