<?xml version="1.0" encoding="UTF-8" standalone="no"?>
<svg width="14px" height="16px" viewBox="0 0 14 16" version="1.1" xmlns="http://www.w3.org/2000/svg" xmlns:xlink="http://www.w3.org/1999/xlink" xmlns:sketch="http://www.bohemiancoding.com/sketch/ns">
    <!-- Generator: sketchtool 3.5.1 (25234) - http://www.bohemiancoding.com/sketch -->
    <title>icon-public</title>
    <desc>Created with sketchtool.</desc>
    <defs></defs>
    <g id="Page-1" stroke="none" stroke-width="1" fill="none" fill-rule="evenodd" sketch:type="MSPage">
        <g id="My-Services---Define-Service" sketch:type="MSArtboardGroup" transform="translate(-391.000000, -512.000000)" fill="#00AFB5">
            <g id="icon-public" sketch:type="MSLayerGroup" transform="translate(391.000000, 512.000000)">
                <path d="M12.4571429,15.8285714 L1.65714286,15.8285714 C0.857142857,15.8285714 0.171428571,15.2 0.171428571,14.3428571 L0.171428571,8.11428571 C0.171428571,7.31428571 0.8,6.62857143 1.65714286,6.62857143 L12.4571429,6.62857143 C13.2571429,6.62857143 13.9428571,7.25714286 13.9428571,8.11428571 L13.9428571,14.3428571 C13.8857143,15.2 13.2571429,15.8285714 12.4571429,15.8285714 L12.4571429,15.8285714 Z M1.65714286,7.6 C1.37142857,7.6 1.08571429,7.88571429 1.08571429,8.17142857 L1.08571429,14.4 C1.08571429,14.6857143 1.37142857,14.9714286 1.65714286,14.9714286 L12.4571429,14.9714286 C12.7428571,14.9714286 13.0285714,14.6857143 13.0285714,14.4 L13.0285714,8.17142857 C13.0285714,7.88571429 12.7428571,7.6 12.4571429,7.6 L1.65714286,7.6 L1.65714286,7.6 Z" id="Shape" sketch:type="MSShapeGroup"></path>
                <path d="M2.91428571,7.14285714 L2.91428571,4.11428571 C2.91428571,1.82857143 4.74285714,0 7.02857143,0 C9.31428571,0 11.1428571,1.82857143 11.1428571,4.11428571 C11.1428571,4.4 10.9714286,4.57142857 10.6857143,4.57142857 C10.4,4.57142857 10.2285714,4.4 10.2285714,4.11428571 C10.2285714,2.4 8.74285714,0.914285714 7.02857143,0.914285714 C5.31428571,0.914285714 3.82857143,2.4 3.82857143,4.11428571 L3.82857143,7.14285714 L2.91428571,7.14285714 L2.91428571,7.14285714 Z" id="Shape" sketch:type="MSShapeGroup"></path>
                <g id="Group" transform="translate(5.714286, 9.714286)" sketch:type="MSShapeGroup">
                    <path d="M1.31428571,3.02857143 C1.02857143,3.02857143 0.857142857,2.85714286 0.857142857,2.57142857 L0.857142857,0.457142857 C0.857142857,0.171428571 1.02857143,0 1.31428571,0 C1.6,0 1.77142857,0.171428571 1.77142857,0.457142857 L1.77142857,2.57142857 C1.77142857,2.85714286 1.6,3.02857143 1.31428571,3.02857143 L1.31428571,3.02857143 Z" id="Shape"></path>
                    <path d="M1.31428571,3.48571429 C1.02857143,3.48571429 0.857142857,3.37142857 0.685714286,3.2 C0.514285714,3.02857143 0.4,2.85714286 0.4,2.57142857 C0.4,2.28571429 0.514285714,2.11428571 0.685714286,1.94285714 C1.02857143,1.6 1.6,1.6 1.94285714,1.94285714 C2.11428571,2.11428571 2.22857143,2.28571429 2.22857143,2.57142857 C2.22857143,2.85714286 2.11428571,3.02857143 1.94285714,3.2 C1.77142857,3.37142857 1.6,3.48571429 1.31428571,3.48571429 L1.31428571,3.48571429 Z" id="Shape"></path>
                </g>
            </g>
        </g>
    </g>
</svg>