<?xml version="1.0" encoding="UTF-8" standalone="no"?>
<svg width="20px" height="20px" viewBox="0 0 20 20" version="1.1" xmlns="http://www.w3.org/2000/svg" xmlns:xlink="http://www.w3.org/1999/xlink" xmlns:sketch="http://www.bohemiancoding.com/sketch/ns">
    <!-- Generator: sketchtool 3.5.1 (25234) - http://www.bohemiancoding.com/sketch -->
    <title>icon-radio-on</title>
    <desc>Created with sketchtool.</desc>
    <defs>
        <filter x="-50%" y="-50%" width="200%" height="200%" filterUnits="objectBoundingBox" id="filter-1">
            <feOffset dx="0" dy="0" in="SourceAlpha" result="shadowOffsetOuter1"></feOffset>
            <feGaussianBlur stdDeviation="2" in="shadowOffsetOuter1" result="shadowBlurOuter1"></feGaussianBlur>
            <feColorMatrix values="0 0 0 0 0   0 0 0 0 0   0 0 0 0 0  0 0 0 0.35 0" in="shadowBlurOuter1" type="matrix" result="shadowMatrixOuter1"></feColorMatrix>
            <feMerge>
                <feMergeNode in="shadowMatrixOuter1"></feMergeNode>
                <feMergeNode in="SourceGraphic"></feMergeNode>
            </feMerge>
        </filter>
    </defs>
    <g id="Page-1" stroke="none" stroke-width="1" fill="none" fill-rule="evenodd" sketch:type="MSPage">
        <g id="Settings---Payment---Card" sketch:type="MSArtboardGroup" transform="translate(-390.000000, -289.000000)">
            <g id="icon-radio-on" sketch:type="MSLayerGroup" transform="translate(390.000000, 289.000000)">
                <g id="check-on" sketch:type="MSShapeGroup">
                    <path d="M10.0484262,19.9757869 C4.60048426,19.9757869 0.169491525,15.5447942 0.169491525,10.0968523 C0.169491525,4.64891041 4.60048426,0.217917676 10.0484262,0.217917676 C15.496368,0.217917676 19.9273608,4.64891041 19.9273608,10.0968523 C19.9273608,15.5447942 15.5690073,19.9757869 10.0484262,19.9757869 L10.0484262,19.9757869 Z" id="Shape" fill="#00AFB5"></path>
                    <path d="M8.1598063,12.566586 L6.85230024,11.2590799 C6.63438257,11.0411622 6.63438257,10.6779661 6.85230024,10.4600484 C7.07021792,10.2421308 7.43341404,10.2421308 7.65133172,10.4600484 L8.95883777,11.7675545 C9.10411622,11.9128329 9.10411622,11.9128329 9.17675545,11.9128329 C9.3220339,11.9128329 9.39467312,11.9128329 9.39467312,11.7675545 L12.5181598,8.6440678 C12.7360775,8.42615012 13.0992736,8.42615012 13.3171913,8.6440678 C13.535109,8.86198547 13.535109,9.2251816 13.3171913,9.44309927 L10.1937046,12.566586 C9.97578692,12.7845036 9.6125908,13.0024213 9.17675545,13.0024213 C8.7409201,13.0024213 8.37772397,12.8571429 8.1598063,12.566586 Z" id="Shape" fill="#FFFFFF"></path>
                </g>
                <circle id="Oval-199" fill="#FFFFFF" filter="url(#filter-1)" sketch:type="MSShapeGroup" cx="10.1694915" cy="10.1694915" r="4.40677966"></circle>
            </g>
        </g>
    </g>
</svg>