<?xml version="1.0" encoding="UTF-8" standalone="no"?>
<svg width="21px" height="36px" viewBox="0 0 21 36" version="1.1" xmlns="http://www.w3.org/2000/svg" xmlns:xlink="http://www.w3.org/1999/xlink" xmlns:sketch="http://www.bohemiancoding.com/sketch/ns">
    <!-- Generator: sketchtool 3.5.1 (25234) - http://www.bohemiancoding.com/sketch -->
    <title>icon-pdf</title>
    <desc>Created with sketchtool.</desc>
    <defs></defs>
    <g id="Page-1" stroke="none" stroke-width="1" fill="none" fill-rule="evenodd" sketch:type="MSPage">
        <g id="Requests-&amp;-Quotes---View-Request" sketch:type="MSArtboardGroup" transform="translate(-664.000000, -801.000000)" fill="#00AFB5">
            <g id="icon-pdf" sketch:type="MSLayerGroup" transform="translate(664.000000, 801.000000)">
                <g id="Group-Copy-2" sketch:type="MSShapeGroup">
                    <g id="Group">
                        <path d="M16.8732343,27.7271844 L4.09055883,27.7271844 C1.89353649,27.7271844 0.0959727601,25.9005496 0.0959727601,23.6679959 L0.0959727601,4.18389089 C0.0959727601,1.95133719 1.89353649,0.124702347 4.09055883,0.124702347 L9.88270864,0.124702347 C10.4818966,0.124702347 11.1809491,0.429141488 11.6802724,0.733580629 L20.2686324,9.460836 C20.7679557,9.96823457 20.8678203,10.5771128 20.8678203,11.2874708 L20.8678203,23.6679959 C20.8678203,25.9005496 19.1701213,27.7271844 16.8732343,27.7271844 L16.8732343,27.7271844 Z M4.09055883,1.74837776 C2.79231836,1.74837776 1.69380719,2.86465461 1.69380719,4.18389089 L1.69380719,23.6679959 C1.69380719,24.9872322 2.79231836,26.103509 4.09055883,26.103509 L16.8732343,26.103509 C18.1714747,26.103509 19.2699859,24.9872322 19.2699859,23.6679959 L19.2699859,11.2874708 C19.2699859,11.0845114 19.0702566,10.7800723 19.0702566,10.6785926 L10.4818966,1.95133719 C10.2821672,1.74837776 10.1823026,1.74837776 9.88270864,1.74837776 L4.09055883,1.74837776 L4.09055883,1.74837776 Z" id="Shape"></path>
                        <path d="M11.2808138,0.936540056 L11.2808138,7.43124173 C11.2808138,8.750478 12.3793249,9.86675485 13.6775654,9.86675485 L20.0689031,9.86675485 L20.0689031,11.4904303 L13.6775654,11.4904303 C11.4805431,11.4904303 9.68297934,9.66379543 9.68297934,7.43124173 L9.68297934,0.936540056 L11.2808138,0.936540056 L11.2808138,0.936540056 Z" id="Shape"></path>
                    </g>
                </g>
                <text id="PDF" sketch:type="MSTextLayer" font-family="Source Sans Pro" font-size="10.4914005" font-weight="bold">
                    <tspan x="0.724137931" y="37.5943396">PDF</tspan>
                </text>
            </g>
        </g>
    </g>
</svg>