<?xml version="1.0" encoding="UTF-8" standalone="no"?>
<svg width="15px" height="15px" viewBox="0 0 15 15" version="1.1" xmlns="http://www.w3.org/2000/svg" xmlns:xlink="http://www.w3.org/1999/xlink" xmlns:sketch="http://www.bohemiancoding.com/sketch/ns">
    <!-- Generator: sketchtool 3.5.1 (25234) - http://www.bohemiancoding.com/sketch -->
    <title>icon-send-message</title>
    <desc>Created with sketchtool.</desc>
    <defs></defs>
    <g id="Page-1" stroke="none" stroke-width="1" fill="none" fill-rule="evenodd" sketch:type="MSPage">
        <g id="Requests-&amp;-Quotes---Messages" sketch:type="MSArtboardGroup" transform="translate(-1241.000000, -879.000000)" fill="#FFFFFF">
            <g id="Group-6-Copy" sketch:type="MSLayerGroup" transform="translate(390.000000, 870.000000)">
                <g id="icon-send-message" transform="translate(851.000000, 9.000000)" sketch:type="MSShapeGroup">
                    <g id="Group">
                        <path d="M8.88888889,14.7692308 C8.14814815,14.7692308 7.52136752,14.1923077 7.35042735,13.5 L6.60968661,9 C6.60968661,8.71153846 6.32478632,8.53846154 6.03988604,8.42307692 L1.5954416,7.67307692 C0.854700855,7.55769231 0.398860399,7.03846154 0.341880342,6.28846154 C0.227920228,5.53846154 0.626780627,4.90384615 1.36752137,4.73076923 L12.8774929,0.230769231 C13.5042735,-0.0576923077 14.3589744,0.230769231 14.7008547,0.807692308 C14.985755,1.26923077 15.042735,1.73076923 14.8717949,2.30769231 L10.4273504,13.9615385 C10.0854701,14.4230769 9.51566952,14.7692308 8.88888889,14.7692308 L8.88888889,14.7692308 Z M13.3333333,0.923076923 L13.048433,0.923076923 L1.53846154,5.42307692 C1.1965812,5.53846154 1.08262108,5.88461538 1.1965812,6.05769231 C1.1965812,6.23076923 1.36752137,6.51923077 1.76638177,6.63461538 L6.21082621,7.38461538 C6.83760684,7.5 7.40740741,8.01923077 7.46438746,8.65384615 L8.20512821,13.1538462 C8.31908832,13.5 8.54700855,13.7307692 8.83190883,13.7307692 C8.94586895,13.7307692 9.28774929,13.7307692 9.4017094,13.3846154 L13.8461538,1.73076923 C13.960114,1.44230769 13.8461538,1.26923077 13.7321937,1.15384615 C13.7891738,1.03846154 13.5042735,0.923076923 13.3333333,0.923076923 L13.3333333,0.923076923 Z" id="Shape"></path>
                        <path d="M6.43874644,7.96153846 L13.3903134,0.923076923 C13.5612536,0.75 13.8461538,0.75 14.017094,0.923076923 C14.1880342,1.09615385 14.1880342,1.38461538 14.017094,1.55769231 L7.06552707,8.59615385 L6.43874644,7.96153846 L6.43874644,7.96153846 Z" id="Shape"></path>
                    </g>
                </g>
            </g>
        </g>
    </g>
</svg>