<?xml version="1.0" encoding="UTF-8" standalone="no"?>
<svg width="22px" height="19px" viewBox="0 0 22 19" version="1.1" xmlns="http://www.w3.org/2000/svg" xmlns:xlink="http://www.w3.org/1999/xlink" xmlns:sketch="http://www.bohemiancoding.com/sketch/ns">
    <!-- Generator: sketchtool 3.5.1 (25234) - http://www.bohemiancoding.com/sketch -->
    <title>icon-compose</title>
    <desc>Created with sketchtool.</desc>
    <defs>
        <path id="path-1" d="M0,0 L14.2148201,0 C14.2148201,0 11.5207997,2.5757357 11.5207997,3.41465118 C11.5207997,6.51952151 11.9148936,11.8313574 11.9148936,11.8313574 L22.2729768,3.03587629 L22.7063005,15.3191489 L11.9148936,15.3191489 L0,15.3191489 L0,0 Z"></path>
    </defs>
    <g id="Page-1" stroke="none" stroke-width="1" fill="none" fill-rule="evenodd" sketch:type="MSPage">
        <g id="Inbox" sketch:type="MSArtboardGroup" transform="translate(-1119.000000, -212.000000)">
            <g id="Group-7" sketch:type="MSLayerGroup" transform="translate(1106.000000, 208.000000)">
                <g id="icon-compose" transform="translate(10.000000, 4.000000)">
                    <g id="Group" transform="translate(0.000000, 4.680851)">
                        <g id="Shape">
                            <mask id="mask-2" sketch:name="Mask" fill="white">
                                <use xlink:href="#path-1"></use>
                            </mask>
                            <use id="Mask" sketch:type="MSShapeGroup" xlink:href="#path-1"></use>
                            <path d="M19.2553191,13.7234043 L4.95744681,13.7234043 C4.12765957,13.7234043 3.42553191,13.0212766 3.42553191,12.1914894 L3.42553191,3 C3.42553191,2.17021277 4.12765957,1.46808511 4.95744681,1.46808511 L19.2553191,1.46808511 C20.0851064,1.46808511 20.787234,2.17021277 20.787234,3 L20.787234,12.1914894 C20.787234,13.0212766 20.0851064,13.7234043 19.2553191,13.7234043 L19.2553191,13.7234043 L19.2553191,13.7234043 Z M4.95744681,2.4893617 C4.63829787,2.4893617 4.44680851,2.68085106 4.44680851,3 L4.44680851,12.1914894 C4.44680851,12.5106383 4.63829787,12.7021277 4.95744681,12.7021277 L19.2553191,12.7021277 C19.5744681,12.7021277 19.7659574,12.5106383 19.7659574,12.1914894 L19.7659574,3 C19.7659574,2.68085106 19.5744681,2.4893617 19.2553191,2.4893617 L4.95744681,2.4893617 L4.95744681,2.4893617 L4.95744681,2.4893617 Z" fill="#FFFFFF" sketch:type="MSShapeGroup" mask="url(#mask-2)"></path>
                        </g>
                    </g>
                    <path d="M21.7991489,6.42382979 C21.6731915,6.42382979 21.4842553,6.42382979 21.4212766,6.29787234 L18.2093617,3.08595745 C18.0834043,2.96 18.0834043,2.89702128 18.0834043,2.70808511 C18.0834043,2.51914894 18.2093617,2.39319149 18.2093617,2.33021277 L19.5319149,1.00765957 C20.3506383,0.18893617 21.6731915,0.18893617 22.3659574,1.00765957 L23.4995745,2.1412766 C24.3182979,2.96 24.3182979,4.28255319 23.4995745,4.97531915 L22.1770213,6.29787234 C22.0510638,6.42382979 21.8621277,6.42382979 21.7991489,6.42382979 L21.7991489,6.42382979 Z M19.28,2.64510638 L21.7991489,5.16425532 L22.8068085,4.15659574 C23.1846809,3.7787234 23.1846809,3.14893617 22.8068085,2.77106383 L21.6731915,1.63744681 C21.2953191,1.25957447 20.6655319,1.25957447 20.2876596,1.63744681 L19.28,2.64510638 L19.28,2.64510638 Z" id="Shape" fill="#FFFFFF" sketch:type="MSShapeGroup"></path>
                    <path d="M9.07744681,15.8706383 C8.95148936,15.8706383 8.76255319,15.7446809 8.69957447,15.7446809 C8.57361702,15.5557447 8.57361702,15.4297872 8.57361702,15.2408511 L9.20340426,11.3991489 C9.20340426,11.2731915 9.3293617,11.2102128 9.3293617,11.0842553 L18.2093617,2.20425532 C18.3982979,2.01531915 18.7131915,2.01531915 18.9021277,2.20425532 L22.1140426,5.41617021 C22.24,5.54212766 22.24,5.60510638 22.24,5.79404255 C22.24,5.98297872 22.1140426,6.10893617 22.1140426,6.17191489 L13.2340426,15.0519149 C13.1080851,15.1778723 13.0451064,15.1778723 12.9191489,15.1778723 L9.07744681,15.8706383 L9.07744681,15.8706383 L9.07744681,15.8706383 Z M10.2110638,11.7140426 L9.70723404,14.7370213 L12.7302128,14.2331915 L21.106383,5.85702128 L18.587234,3.33787234 L10.2110638,11.7140426 L10.2110638,11.7140426 Z" id="Shape" fill="#FFFFFF" sketch:type="MSShapeGroup"></path>
                    <path d="M13.4229787,14.2331915 L10.2110638,11.0212766 C10.0221277,10.8323404 10.0221277,10.5174468 10.2110638,10.3285106 C10.4,10.1395745 10.7148936,10.1395745 10.9038298,10.3285106 L14.1157447,13.5404255 C14.3046809,13.7293617 14.3046809,14.0442553 14.1157447,14.2331915 C14.1157447,14.2331915 13.9897872,14.3591489 13.8008511,14.3591489 C13.6748936,14.3591489 13.4859574,14.3591489 13.4229787,14.2331915 Z" id="Shape" fill="#FFFFFF" sketch:type="MSShapeGroup"></path>
                </g>
            </g>
        </g>
    </g>
</svg>