<?xml version="1.0" encoding="UTF-8" standalone="no"?>
<svg width="20px" height="20px" viewBox="0 0 20 20" version="1.1" xmlns="http://www.w3.org/2000/svg" xmlns:xlink="http://www.w3.org/1999/xlink" xmlns:sketch="http://www.bohemiancoding.com/sketch/ns">
    <!-- Generator: sketchtool 3.5.1 (25234) - http://www.bohemiancoding.com/sketch -->
    <title>icon-more</title>
    <desc>Created with sketchtool.</desc>
    <defs></defs>
    <g id="Page-1" stroke="none" stroke-width="1" fill="none" fill-rule="evenodd" sketch:type="MSPage">
        <g id="My-Services" sketch:type="MSArtboardGroup" transform="translate(-1250.000000, -272.000000)" fill="#00AFB5">
            <g id="icon-more" sketch:type="MSLayerGroup" transform="translate(1250.000000, 272.000000)">
                <path d="M9.97560976,19.472856 C4.48780488,19.472856 0.0243902439,15.1534225 0.0243902439,9.84264359 C0.0243902439,4.53186467 4.48780488,0.212431157 9.97560976,0.212431157 C15.4634146,0.212431157 19.9268293,4.53186467 19.9268293,9.84264359 C19.9268293,15.1534225 15.5365854,19.472856 9.97560976,19.472856 L9.97560976,19.472856 Z M9.97560976,0.656963021 C4.7550813,0.656963021 0.483739837,4.79051928 0.483739837,9.84264359 C0.483739837,14.8947679 4.7550813,19.0283242 9.97560976,19.0283242 C15.1961382,19.0283242 19.4674797,14.8947679 19.4674797,9.84264359 C19.4674797,4.79051928 15.1961382,0.656963021 9.97560976,0.656963021 L9.97560976,0.656963021 Z" id="Shape" sketch:type="MSShapeGroup"></path>
                <path d="M9.16611406,12.5377035 C8.98522514,12.3626497 8.98522514,12.0708933 9.16611406,11.8958396 L10.9750032,10.1453016 C11.0955958,10.0285991 11.0955958,9.85354532 10.9750032,9.67849153 L9.16611406,7.92795362 C8.98522514,7.75289982 8.98522514,7.46114351 9.16611406,7.28608971 C9.34700298,7.11103592 9.64848451,7.11103592 9.82937342,7.28608971 L11.6382626,9.03662763 C12.120633,9.50343774 12.120633,10.3203554 11.6382626,10.7871655 L9.82937342,12.5377035 C9.82937342,12.654406 9.70878081,12.654406 9.52789189,12.654406 C9.40729928,12.654406 9.22641036,12.654406 9.16611406,12.5377035 Z" id="Shape" sketch:type="MSShapeGroup"></path>
            </g>
        </g>
    </g>
</svg>