<?xml version="1.0" encoding="UTF-8" standalone="no"?>
<svg width="18px" height="14px" viewBox="0 0 18 14" version="1.1" xmlns="http://www.w3.org/2000/svg" xmlns:xlink="http://www.w3.org/1999/xlink" xmlns:sketch="http://www.bohemiancoding.com/sketch/ns">
    <!-- Generator: sketchtool 3.5.1 (25234) - http://www.bohemiancoding.com/sketch -->
    <title>icon-general-on</title>
    <desc>Created with sketchtool.</desc>
    <defs></defs>
    <g id="Page-1" stroke="none" stroke-width="1" fill="none" fill-rule="evenodd" sketch:type="MSPage">
        <g id="Settings---General" sketch:type="MSArtboardGroup" transform="translate(-396.000000, -209.000000)" fill="#00AFB5">
            <g id="icon-general-on" sketch:type="MSLayerGroup" transform="translate(396.000000, 209.102564)">
                <g id="Group" transform="translate(5.198135, 0.000000)" sketch:type="MSShapeGroup">
                    <path d="M11.3403263,1.52680653 L0.897435897,1.52680653 C0.48951049,1.52680653 0.244755245,1.28205128 0.244755245,0.874125874 C0.244755245,0.466200466 0.48951049,0.221445221 0.897435897,0.221445221 L11.3403263,0.221445221 C11.7482517,0.221445221 11.993007,0.466200466 11.993007,0.874125874 C11.993007,1.28205128 11.7482517,1.52680653 11.3403263,1.52680653 L11.3403263,1.52680653 Z" id="Shape"></path>
                    <path d="M11.3403263,7.4009324 L0.897435897,7.4009324 C0.48951049,7.4009324 0.244755245,7.15617716 0.244755245,6.74825175 C0.244755245,6.34032634 0.48951049,6.0955711 0.897435897,6.0955711 L11.3403263,6.0955711 C11.7482517,6.0955711 11.993007,6.34032634 11.993007,6.74825175 C11.993007,7.15617716 11.7482517,7.4009324 11.3403263,7.4009324 L11.3403263,7.4009324 Z" id="Shape"></path>
                    <path d="M11.3403263,13.2750583 L0.897435897,13.2750583 C0.48951049,13.2750583 0.244755245,13.030303 0.244755245,12.6223776 C0.244755245,12.2144522 0.48951049,11.969697 0.897435897,11.969697 L11.3403263,11.969697 C11.7482517,11.969697 11.993007,12.2144522 11.993007,12.6223776 C11.993007,13.030303 11.7482517,13.2750583 11.3403263,13.2750583 L11.3403263,13.2750583 Z" id="Shape"></path>
                </g>
                <g id="Group" transform="translate(0.000000, 0.000000)" sketch:type="MSShapeGroup">
                    <path d="M0.874125874,1.52680653 C0.710955711,1.52680653 0.466200466,1.36363636 0.384615385,1.28205128 C0.221445221,1.11888112 0.221445221,1.03729604 0.221445221,0.874125874 C0.221445221,0.710955711 0.221445221,0.466200466 0.384615385,0.384615385 C0.629370629,0.13986014 1.03729604,0.13986014 1.28205128,0.384615385 C1.44522145,0.547785548 1.52680653,0.629370629 1.52680653,0.874125874 C1.52680653,1.03729604 1.36363636,1.28205128 1.28205128,1.28205128 C1.28205128,1.44522145 1.03729604,1.52680653 0.874125874,1.52680653 L0.874125874,1.52680653 Z" id="Shape"></path>
                    <path d="M0.874125874,7.4009324 C0.710955711,7.4009324 0.466200466,7.23776224 0.384615385,7.15617716 C0.303030303,7.07459207 0.221445221,6.91142191 0.221445221,6.74825175 C0.221445221,6.58508159 0.221445221,6.34032634 0.384615385,6.25874126 C0.629370629,6.01398601 1.03729604,6.01398601 1.28205128,6.25874126 C1.44522145,6.42191142 1.52680653,6.5034965 1.52680653,6.74825175 C1.52680653,6.91142191 1.36363636,7.15617716 1.28205128,7.15617716 C1.28205128,7.31934732 1.03729604,7.4009324 0.874125874,7.4009324 L0.874125874,7.4009324 Z" id="Shape"></path>
                    <path d="M0.874125874,13.2750583 C0.710955711,13.2750583 0.466200466,13.1118881 0.384615385,13.030303 C0.303030303,12.9487179 0.221445221,12.7855478 0.221445221,12.6223776 C0.221445221,12.4592075 0.221445221,12.2144522 0.384615385,12.1328671 C0.629370629,11.8881119 1.03729604,11.8881119 1.28205128,12.1328671 C1.44522145,12.2960373 1.52680653,12.3776224 1.52680653,12.6223776 C1.52680653,12.7855478 1.36363636,13.030303 1.28205128,13.030303 C1.28205128,13.1934732 1.03729604,13.2750583 0.874125874,13.2750583 L0.874125874,13.2750583 Z" id="Shape"></path>
                </g>
            </g>
        </g>
    </g>
</svg>