<?xml version="1.0" encoding="UTF-8" standalone="no"?>
<svg width="25px" height="25px" viewBox="0 0 25 25" version="1.1" xmlns="http://www.w3.org/2000/svg" xmlns:xlink="http://www.w3.org/1999/xlink" xmlns:sketch="http://www.bohemiancoding.com/sketch/ns">
    <!-- Generator: sketchtool 3.5.1 (25234) - http://www.bohemiancoding.com/sketch -->
    <title>icon-draft</title>
    <desc>Created with sketchtool.</desc>
    <defs></defs>
    <g id="Page-1" stroke="none" stroke-width="1" fill="none" fill-rule="evenodd" sketch:type="MSPage">
        <g id="Requests-&amp;-Quotes---Quote--Payment" sketch:type="MSArtboardGroup" transform="translate(-860.000000, -731.000000)" fill="#FFFFFF">
            <g id="Group-9" sketch:type="MSLayerGroup" transform="translate(751.000000, 724.000000)">
                <g id="icon-draft" transform="translate(109.000000, 7.000000)" sketch:type="MSShapeGroup">
                    <path d="M12.3969308,24.7938617 C5.56038809,24.7938617 0,19.2334736 0,12.3969308 C0,5.56038809 5.56038809,0 12.3969308,0 C19.2334736,0 24.7938617,5.56038809 24.7938617,12.3969308 C24.7938617,19.2334736 19.3246275,24.7938617 12.3969308,24.7938617 L12.3969308,24.7938617 Z M12.3969308,0.795080973 C6.01591341,0.795080973 0.795080973,6.01591341 0.795080973,12.3969308 C0.795080973,18.7779482 6.01591341,23.9987807 12.3969308,23.9987807 C18.7779482,23.9987807 23.9987807,18.7779482 23.9987807,12.3969308 C23.9987807,6.01591341 18.7779482,0.795080973 12.3969308,0.795080973 L12.3969308,0.795080973 Z" id="Shape"></path>
                    <g id="Group" transform="translate(7.000000, 5.000000)">
                        <g id="Shape">
                            <path d="M8.78064516,13.9333333 L2.17419355,13.9333333 C1.03870968,13.9333333 0.109677419,13.0213333 0.109677419,11.9066667 L0.109677419,2.17866667 C0.109677419,1.064 1.03870968,0.152 2.17419355,0.152 L5.16774194,0.152 C5.47741935,0.152 5.83870968,0.304 6.09677419,0.456 L10.5354839,4.81333333 C10.7935484,5.06666667 10.8451613,5.37066667 10.8451613,5.72533333 L10.8451613,11.9066667 C10.8451613,13.0213333 9.96774194,13.9333333 8.78064516,13.9333333 L8.78064516,13.9333333 Z M2.17419355,0.962666667 C1.50322581,0.962666667 0.935483871,1.52 0.935483871,2.17866667 L0.935483871,11.9066667 C0.935483871,12.5653333 1.50322581,13.1226667 2.17419355,13.1226667 L8.78064516,13.1226667 C9.4516129,13.1226667 10.0193548,12.5653333 10.0193548,11.9066667 L10.0193548,5.72533333 C10.0193548,5.624 9.91612903,5.472 9.91612903,5.42133333 L5.47741935,1.064 C5.37419355,0.962666667 5.32258065,0.962666667 5.16774194,0.962666667 L2.17419355,0.962666667 L2.17419355,0.962666667 Z"></path>
                            <path d="M10.4322581,5.82666667 L7.12903226,5.82666667 C5.99354839,5.82666667 5.06451613,4.91466667 5.06451613,3.8 L5.06451613,0.557333333 C5.06451613,0.304 5.21935484,0.152 5.47741935,0.152 C5.73548387,0.152 5.89032258,0.304 5.89032258,0.557333333 L5.89032258,3.8 C5.89032258,4.45866667 6.45806452,5.016 7.12903226,5.016 L10.4322581,5.016 C10.6903226,5.016 10.8451613,5.168 10.8451613,5.42133333 C10.8451613,5.67466667 10.6903226,5.82666667 10.4322581,5.82666667 L10.4322581,5.82666667 Z"></path>
                        </g>
                        <path d="M4.85806452,10.944 C4.5483871,10.944 4.29032258,10.8426667 4.13548387,10.64 L3.20645161,9.728 C3.0516129,9.576 3.0516129,9.32266667 3.20645161,9.17066667 C3.36129032,9.01866667 3.61935484,9.01866667 3.77419355,9.17066667 L4.70322581,10.0826667 C4.80645161,10.184 4.85806452,10.184 4.85806452,10.184 C4.96129032,10.184 5.01290323,10.184 5.01290323,10.0826667 L7.23225806,7.904 C7.38709677,7.752 7.64516129,7.752 7.8,7.904 C7.95483871,8.056 7.95483871,8.30933333 7.8,8.46133333 L5.58064516,10.64 C5.42580645,10.7413333 5.16774194,10.944 4.85806452,10.944 L4.85806452,10.944 L4.85806452,10.944 Z" id="Shape"></path>
                    </g>
                </g>
            </g>
        </g>
    </g>
</svg>