<?xml version="1.0" encoding="UTF-8" standalone="no"?>
<svg width="20px" height="20px" viewBox="0 0 20 20" version="1.1" xmlns="http://www.w3.org/2000/svg" xmlns:xlink="http://www.w3.org/1999/xlink" xmlns:sketch="http://www.bohemiancoding.com/sketch/ns">
    <!-- Generator: sketchtool 3.5.1 (25234) - http://www.bohemiancoding.com/sketch -->
    <title>icon-halted</title>
    <desc>Created with sketchtool.</desc>
    <defs></defs>
    <g id="Page-1" stroke="none" stroke-width="1" fill="none" fill-rule="evenodd" sketch:type="MSPage">
        <g id="Jobs---Job-Details---View-Job" sketch:type="MSArtboardGroup" transform="translate(-1163.000000, -1198.000000)">
            <g id="icon-halted" sketch:type="MSLayerGroup" transform="translate(1163.000000, 1198.000000)">
                <g id="Group-Copy-4" fill="#00AFB5" sketch:type="MSShapeGroup">
                    <path d="M10.0471173,19.4558966 C4.57788315,19.4558966 0.129572672,15.1311503 0.129572672,9.81383926 C0.129572672,4.49652825 4.57788315,0.171781951 10.0471173,0.171781951 C15.5163515,0.171781951 19.964662,4.49652825 19.964662,9.81383926 C19.964662,15.1311503 15.5892746,19.4558966 10.0471173,19.4558966 L10.0471173,19.4558966 Z" id="Shape"></path>
                </g>
                <g id="Group" transform="translate(6.285714, 6.388889)" fill="#FFFFFF" sketch:type="MSShapeGroup">
                    <path d="M1.43879693,6.41109586 C0.760582681,6.41109586 0.233082707,5.90468223 0.233082707,5.25357899 L0.233082707,1.20226995 C0.233082707,0.551166716 0.760582681,0.0447530864 1.43879693,0.0447530864 C2.11701118,0.0447530864 2.64451116,0.551166716 2.64451116,1.20226995 L2.64451116,5.25357899 C2.64451116,5.86850983 2.11701118,6.41109586 1.43879693,6.41109586 L1.43879693,6.41109586 Z" id="Shape"></path>
                    <path d="M6.65984956,6.41109586 C5.98163531,6.41109586 5.45413534,5.90468223 5.45413534,5.25357899 L5.45413534,1.20226995 C5.45413534,0.551166716 5.98163531,0.0447530864 6.65984956,0.0447530864 C7.33806382,0.0447530864 7.86556379,0.551166716 7.86556379,1.20226995 L7.86556379,5.25357899 C7.86556379,5.86850983 7.33806382,6.41109586 6.65984956,6.41109586 L6.65984956,6.41109586 Z" id="Shape"></path>
                </g>
            </g>
        </g>
    </g>
</svg>