<?xml version="1.0" encoding="UTF-8" standalone="no"?>
<svg width="16px" height="20px" viewBox="0 0 16 20" version="1.1" xmlns="http://www.w3.org/2000/svg" xmlns:xlink="http://www.w3.org/1999/xlink" xmlns:sketch="http://www.bohemiancoding.com/sketch/ns">
    <!-- Generator: sketchtool 3.5.1 (25234) - http://www.bohemiancoding.com/sketch -->
    <title>icon-claims-on</title>
    <desc>Created with sketchtool.</desc>
    <defs></defs>
    <g id="Page-1" stroke="none" stroke-width="1" fill="none" fill-rule="evenodd" sketch:type="MSPage">
        <g id="Jobs---Job-Details---Claims" sketch:type="MSArtboardGroup" transform="translate(-553.000000, -266.000000)" fill="#00AFB5">
            <g id="icon-claims-on" sketch:type="MSLayerGroup" transform="translate(553.000000, 266.000000)">
                <g id="Group" sketch:type="MSShapeGroup">
                    <path d="M12.3727273,20 L3.06363636,20 C1.46363636,20 0.154545455,18.6909091 0.154545455,17.0909091 L0.154545455,3.12727273 C0.154545455,1.52727273 1.46363636,0.218181818 3.06363636,0.218181818 L7.28181818,0.218181818 C7.71818182,0.218181818 8.22727273,0.436363636 8.59090909,0.654545455 L14.8454545,6.90909091 C15.2090909,7.27272727 15.2818182,7.70909091 15.2818182,8.21818182 L15.2818182,17.0909091 C15.2818182,18.6909091 14.0454545,20 12.3727273,20 L12.3727273,20 Z M3.06363636,1.38181818 C2.11818182,1.38181818 1.31818182,2.18181818 1.31818182,3.12727273 L1.31818182,17.0909091 C1.31818182,18.0363636 2.11818182,18.8363636 3.06363636,18.8363636 L12.3727273,18.8363636 C13.3181818,18.8363636 14.1181818,18.0363636 14.1181818,17.0909091 L14.1181818,8.21818182 C14.1181818,8.07272727 13.9727273,7.85454545 13.9727273,7.78181818 L7.71818182,1.52727273 C7.57272727,1.38181818 7.5,1.38181818 7.28181818,1.38181818 L3.06363636,1.38181818 L3.06363636,1.38181818 Z" id="Shape"></path>
                    <path d="M14.7,8.36363636 L10.0454545,8.36363636 C8.44545455,8.36363636 7.13636364,7.05454545 7.13636364,5.45454545 L7.13636364,0.8 C7.13636364,0.436363636 7.35454545,0.218181818 7.71818182,0.218181818 C8.08181818,0.218181818 8.3,0.436363636 8.3,0.8 L8.3,5.45454545 C8.3,6.4 9.1,7.2 10.0454545,7.2 L14.7,7.2 C15.0636364,7.2 15.2818182,7.41818182 15.2818182,7.78181818 C15.2818182,8.14545455 15.0636364,8.36363636 14.7,8.36363636 L14.7,8.36363636 Z" id="Shape"></path>
                </g>
                <g id="Group" transform="translate(5.000000, 11.000000)" sketch:type="MSShapeGroup">
                    <path d="M4.275,5.48181818 C4.125,5.48181818 3.9,5.48181818 3.825,5.31818182 L0.225,1.39090909 C-3.5525749e-13,1.14545455 -3.5525749e-13,0.736363636 0.225,0.490909091 C0.45,0.245454545 0.825,0.245454545 1.05,0.490909091 L4.65,4.41818182 C4.875,4.66363636 4.875,5.07272727 4.65,5.31818182 C4.65,5.4 4.425,5.48181818 4.275,5.48181818 L4.275,5.48181818 Z" id="Shape"></path>
                    <path d="M0.675,5.48181818 C0.525,5.48181818 0.3,5.48181818 0.225,5.31818182 C-3.5525749e-13,5.07272727 -3.5525749e-13,4.66363636 0.225,4.41818182 L3.825,0.490909091 C4.05,0.245454545 4.425,0.245454545 4.65,0.490909091 C4.875,0.736363636 4.875,1.14545455 4.65,1.39090909 L1.05,5.31818182 C1.05,5.4 0.825,5.48181818 0.675,5.48181818 L0.675,5.48181818 Z" id="Shape"></path>
                </g>
            </g>
        </g>
    </g>
</svg>