<?xml version="1.0" encoding="UTF-8" standalone="no"?>
<svg width="23px" height="16px" viewBox="0 0 23 16" version="1.1" xmlns="http://www.w3.org/2000/svg" xmlns:xlink="http://www.w3.org/1999/xlink" xmlns:sketch="http://www.bohemiancoding.com/sketch/ns">
    <!-- Generator: sketchtool 3.5.1 (25234) - http://www.bohemiancoding.com/sketch -->
    <title>icon-payment-on</title>
    <desc>Created with sketchtool.</desc>
    <defs></defs>
    <g id="Page-1" stroke="none" stroke-width="1" fill="none" fill-rule="evenodd" sketch:type="MSPage">
        <g id="Settings---Payment" sketch:type="MSArtboardGroup" transform="translate(-822.000000, -207.000000)" fill="#00AFB5">
            <g id="icon-payment-on" sketch:type="MSLayerGroup" transform="translate(822.000000, 207.000000)">
                <path d="M20.1226513,15.5571344 L2.50318462,15.5571344 C1.48062628,15.5571344 0.615384615,14.6952206 0.615384615,13.6765952 L0.615384615,2.39335975 C0.615384615,1.37473433 1.48062628,0.512820513 2.50318462,0.512820513 L20.1226513,0.512820513 C21.1452097,0.512820513 22.0104513,1.37473433 22.0104513,2.39335975 L22.0104513,13.6765952 C22.0104513,14.6952206 21.1452097,15.5571344 20.1226513,15.5571344 L20.1226513,15.5571344 Z M2.50318462,1.76651334 C2.10989295,1.76651334 1.87391795,2.00158074 1.87391795,2.39335975 L1.87391795,13.6765952 C1.87391795,14.0683742 2.10989295,14.3034416 2.50318462,14.3034416 L20.1226513,14.3034416 C20.515943,14.3034416 20.751918,14.0683742 20.751918,13.6765952 L20.751918,2.39335975 C20.751918,2.00158074 20.515943,1.76651334 20.1226513,1.76651334 L2.50318462,1.76651334 L2.50318462,1.76651334 Z" id="Shape" sketch:type="MSShapeGroup"></path>
                <rect id="Rectangle-path" sketch:type="MSShapeGroup" x="1.61538462" y="3.51282051" width="20.1365334" height="1.25369282"></rect>
                <rect id="Rectangle-path" sketch:type="MSShapeGroup" x="1.61538462" y="6.51282051" width="20.1365334" height="1.25369282"></rect>
                <path d="M7.54830129,9.76651334 L4.24465128,9.76651334 C3.85135962,9.76651334 3.61538462,9.53144593 3.61538462,9.13966692 C3.61538462,8.74788792 3.85135962,8.51282051 4.24465128,8.51282051 L7.54830129,8.51282051 C7.94159296,8.51282051 8.17756796,8.74788792 8.17756796,9.13966692 C8.17756796,9.53144593 7.86293463,9.76651334 7.54830129,9.76651334 L7.54830129,9.76651334 Z" id="Shape" sketch:type="MSShapeGroup"></path>
                <path d="M11.953168,12.7665133 L4.24465128,12.7665133 C3.85135962,12.7665133 3.61538462,12.5314459 3.61538462,12.1396669 C3.61538462,11.7478879 3.85135962,11.5128205 4.24465128,11.5128205 L11.953168,11.5128205 C12.3464596,11.5128205 12.5824346,11.7478879 12.5824346,12.1396669 C12.5824346,12.5314459 12.189143,12.7665133 11.953168,12.7665133 L11.953168,12.7665133 Z" id="Shape" sketch:type="MSShapeGroup"></path>
            </g>
        </g>
    </g>
</svg>