<?xml version="1.0" encoding="UTF-8" standalone="no"?>
<svg width="16px" height="20px" viewBox="0 0 16 20" version="1.1" xmlns="http://www.w3.org/2000/svg" xmlns:xlink="http://www.w3.org/1999/xlink" xmlns:sketch="http://www.bohemiancoding.com/sketch/ns">
    <!-- Generator: sketchtool 3.5.1 (25234) - http://www.bohemiancoding.com/sketch -->
    <title>icon-request-on</title>
    <desc>Created with sketchtool.</desc>
    <defs></defs>
    <g id="Page-1" stroke="none" stroke-width="1" fill="none" fill-rule="evenodd" sketch:type="MSPage">
        <g id="Requests-&amp;-Quotes---View-Request" sketch:type="MSArtboardGroup" transform="translate(-396.000000, -267.000000)" fill="#00AFB5">
            <g id="icon-request-on" sketch:type="MSLayerGroup" transform="translate(396.000000, 267.000000)">
                <g id="Group" sketch:type="MSShapeGroup">
                    <path d="M12.1666667,19.6428571 L3.02380952,19.6428571 C1.45238095,19.6428571 0.166666667,18.3571429 0.166666667,16.7857143 L0.166666667,3.07142857 C0.166666667,1.5 1.45238095,0.214285714 3.02380952,0.214285714 L7.16666667,0.214285714 C7.5952381,0.214285714 8.0952381,0.428571429 8.45238095,0.642857143 L14.5952381,6.78571429 C14.952381,7.14285714 15.0238095,7.57142857 15.0238095,8.07142857 L15.0238095,16.7857143 C15.0238095,18.3571429 13.8095238,19.6428571 12.1666667,19.6428571 L12.1666667,19.6428571 Z M3.02380952,1.35714286 C2.0952381,1.35714286 1.30952381,2.14285714 1.30952381,3.07142857 L1.30952381,16.7857143 C1.30952381,17.7142857 2.0952381,18.5 3.02380952,18.5 L12.1666667,18.5 C13.0952381,18.5 13.8809524,17.7142857 13.8809524,16.7857143 L13.8809524,8.07142857 C13.8809524,7.92857143 13.7380952,7.71428571 13.7380952,7.64285714 L7.5952381,1.5 C7.45238095,1.35714286 7.38095238,1.35714286 7.16666667,1.35714286 L3.02380952,1.35714286 L3.02380952,1.35714286 Z" id="Shape"></path>
                    <path d="M8.16666667,0.785714286 L8.16666667,5.35714286 C8.16666667,6.28571429 8.95238095,7.07142857 9.88095238,7.07142857 L14.452381,7.07142857 L14.452381,8.21428571 L9.88095238,8.21428571 C8.30952381,8.21428571 7.02380952,6.92857143 7.02380952,5.35714286 L7.02380952,0.785714286 L8.16666667,0.785714286 L8.16666667,0.785714286 Z" id="Shape"></path>
                </g>
                <path d="M11.0238095,16.7857143 L4.16666667,16.7857143 C3.80952381,16.7857143 3.5952381,16.5714286 3.5952381,16.2142857 C3.5952381,15.8571429 3.80952381,15.6428571 4.16666667,15.6428571 L11.0238095,15.6428571 C11.3809524,15.6428571 11.5952381,15.8571429 11.5952381,16.2142857 C11.5952381,16.5714286 11.3809524,16.7857143 11.0238095,16.7857143 L11.0238095,16.7857143 Z" id="Shape" sketch:type="MSShapeGroup"></path>
                <path d="M11.0238095,13.9285714 L4.16666667,13.9285714 C3.80952381,13.9285714 3.5952381,13.7142857 3.5952381,13.3571429 C3.5952381,13 3.80952381,12.7857143 4.16666667,12.7857143 L11.0238095,12.7857143 C11.3809524,12.7857143 11.5952381,13 11.5952381,13.3571429 C11.5952381,13.7142857 11.3809524,13.9285714 11.0238095,13.9285714 L11.0238095,13.9285714 Z" id="Shape" sketch:type="MSShapeGroup"></path>
                <path d="M11.0238095,11.0714286 L4.16666667,11.0714286 C3.80952381,11.0714286 3.5952381,10.8571429 3.5952381,10.5 C3.5952381,10.1428571 3.80952381,9.92857143 4.16666667,9.92857143 L11.0238095,9.92857143 C11.3809524,9.92857143 11.5952381,10.1428571 11.5952381,10.5 C11.5952381,10.8571429 11.3809524,11.0714286 11.0238095,11.0714286 L11.0238095,11.0714286 Z" id="Shape" sketch:type="MSShapeGroup"></path>
            </g>
        </g>
    </g>
</svg>