<?xml version="1.0" encoding="UTF-8" standalone="no"?>
<svg width="25px" height="25px" viewBox="0 0 25 25" version="1.1" xmlns="http://www.w3.org/2000/svg" xmlns:xlink="http://www.w3.org/1999/xlink" xmlns:sketch="http://www.bohemiancoding.com/sketch/ns">
    <!-- Generator: sketchtool 3.5.1 (25234) - http://www.bohemiancoding.com/sketch -->
    <title>icon-delete2</title>
    <desc>Created with sketchtool.</desc>
    <defs></defs>
    <g id="Page-1" stroke="none" stroke-width="1" fill="none" fill-rule="evenodd" sketch:type="MSPage">
        <g id="Settings---Payment---Card" sketch:type="MSArtboardGroup" transform="translate(-840.000000, -503.000000)" fill="#FFFFFF">
            <g id="Group-9" sketch:type="MSLayerGroup" transform="translate(771.000000, 496.000000)">
                <g id="icon-delete2" transform="translate(69.000000, 7.000000)" sketch:type="MSShapeGroup">
                    <path d="M12.3969308,24.7938617 C5.56038809,24.7938617 0,19.2334736 0,12.3969308 C0,5.56038809 5.56038809,0 12.3969308,0 C19.2334736,0 24.7938617,5.56038809 24.7938617,12.3969308 C24.7938617,19.2334736 19.3246275,24.7938617 12.3969308,24.7938617 L12.3969308,24.7938617 Z M12.3969308,0.795080973 C6.01591341,0.795080973 0.795080973,6.01591341 0.795080973,12.3969308 C0.795080973,18.7779482 6.01591341,23.9987807 12.3969308,23.9987807 C18.7779482,23.9987807 23.9987807,18.7779482 23.9987807,12.3969308 C23.9987807,6.01591341 18.7779482,0.795080973 12.3969308,0.795080973 L12.3969308,0.795080973 Z" id="Shape"></path>
                    <g id="Group" transform="translate(6.250000, 4.750000)">
                        <path d="M12.3125758,6.22916667 L0.576333333,6.22916667 C0.314363636,6.22916667 0.157181818,6.06666667 0.157181818,5.79583333 L0.157181818,4.0625 C0.157181818,3.35833333 0.733515152,2.7625 1.41463636,2.7625 L11.4742727,2.7625 C12.1553939,2.7625 12.7317273,3.35833333 12.7317273,4.0625 L12.7317273,5.79583333 C12.7317273,5.95833333 12.5745455,6.22916667 12.3125758,6.22916667 L12.3125758,6.22916667 Z M0.995484848,5.3625 L11.8934242,5.3625 L11.8934242,4.0625 C11.8934242,3.79166667 11.7362424,3.62916667 11.4742727,3.62916667 L1.41463636,3.62916667 C1.15266667,3.62916667 0.995484848,3.79166667 0.995484848,4.0625 L0.995484848,5.3625 L0.995484848,5.3625 Z" id="Shape"></path>
                        <path d="M9.79766667,14.8958333 L3.09124242,14.8958333 C1.93857576,14.8958333 0.995484848,13.9208333 0.995484848,12.7291667 L0.995484848,5.79583333 C0.995484848,5.525 1.15266667,5.3625 1.41463636,5.3625 C1.67660606,5.3625 1.83378788,5.525 1.83378788,5.79583333 L1.83378788,12.7291667 C1.83378788,13.4333333 2.41012121,14.0291667 3.09124242,14.0291667 L9.79766667,14.0291667 C10.4787879,14.0291667 11.0551212,13.4333333 11.0551212,12.7291667 L11.0551212,5.79583333 C11.0551212,5.525 11.212303,5.3625 11.4742727,5.3625 C11.7362424,5.3625 11.8934242,5.525 11.8934242,5.79583333 L11.8934242,12.7291667 C11.8934242,13.9208333 11.0027273,14.8958333 9.79766667,14.8958333 L9.79766667,14.8958333 Z" id="Shape"></path>
                        <path d="M8.54021212,3.19583333 L7.70190909,3.19583333 L7.70190909,1.4625 C7.70190909,1.19166667 7.54472727,1.02916667 7.28275758,1.02916667 L5.60615152,1.02916667 C5.34418182,1.02916667 5.187,1.19166667 5.187,1.4625 L5.187,3.19583333 L4.34869697,3.19583333 L4.34869697,1.4625 C4.34869697,0.758333333 4.9250303,0.1625 5.60615152,0.1625 L7.28275758,0.1625 C7.96387879,0.1625 8.54021212,0.758333333 8.54021212,1.4625 L8.54021212,3.19583333 L8.54021212,3.19583333 Z" id="Shape"></path>
                        <path d="M3.92954545,12.2958333 C3.66757576,12.2958333 3.51039394,12.1333333 3.51039394,11.8625 L3.51039394,8.39583333 C3.51039394,8.125 3.66757576,7.9625 3.92954545,7.9625 C4.19151515,7.9625 4.34869697,8.125 4.34869697,8.39583333 L4.34869697,11.8625 C4.34869697,12.1333333 4.19151515,12.2958333 3.92954545,12.2958333 L3.92954545,12.2958333 Z" id="Shape"></path>
                        <path d="M6.44445455,12.2958333 C6.18248485,12.2958333 6.02530303,12.1333333 6.02530303,11.8625 L6.02530303,8.39583333 C6.02530303,8.125 6.18248485,7.9625 6.44445455,7.9625 C6.70642424,7.9625 6.86360606,8.125 6.86360606,8.39583333 L6.86360606,11.8625 C6.86360606,12.1333333 6.70642424,12.2958333 6.44445455,12.2958333 L6.44445455,12.2958333 Z" id="Shape"></path>
                        <path d="M8.95936364,12.2958333 C8.69739394,12.2958333 8.54021212,12.1333333 8.54021212,11.8625 L8.54021212,8.39583333 C8.54021212,8.125 8.69739394,7.9625 8.95936364,7.9625 C9.22133333,7.9625 9.37851515,8.125 9.37851515,8.39583333 L9.37851515,11.8625 C9.37851515,12.1333333 9.22133333,12.2958333 8.95936364,12.2958333 L8.95936364,12.2958333 Z" id="Shape"></path>
                    </g>
                </g>
            </g>
        </g>
    </g>
</svg>