<?xml version="1.0" encoding="UTF-8" standalone="no"?>
<svg width="28px" height="39px" viewBox="0 0 28 39" version="1.1" xmlns="http://www.w3.org/2000/svg" xmlns:xlink="http://www.w3.org/1999/xlink" xmlns:sketch="http://www.bohemiancoding.com/sketch/ns">
    <!-- Generator: sketchtool 3.5.1 (25234) - http://www.bohemiancoding.com/sketch -->
    <title>Rectangle 89 Copy 126</title>
    <desc>Created with sketchtool.</desc>
    <defs></defs>
    <g id="Page-1" stroke="none" stroke-width="1" fill="none" fill-rule="evenodd" sketch:type="MSPage">
        <g id="Requests-&amp;-Quotes" sketch:type="MSArtboardGroup" transform="translate(-130.000000, -11.000000)" fill="#00AFB5">
            <g id="header" sketch:type="MSLayerGroup">
                <g id="ezier-logo" transform="translate(130.000000, 11.000000)" sketch:type="MSShapeGroup">
                    <g id="logo" transform="translate(0.266388, 0.000000)">
                        <path d="M20.263855,31.2720163 C21.8965953,29.5791756 22.901702,27.2706523 22.901702,24.7260492 C22.901702,24.6423933 22.9006156,24.5589926 22.8984564,24.4758606 L22.9039497,24.4758568 C22.9024567,24.4433578 22.901702,24.410665 22.901702,24.377795 C22.901702,23.223782 23.8319653,22.2882697 24.9795033,22.2882697 C26.1270412,22.2882697 27.0573045,23.223782 27.0573045,24.377795 C27.0573045,24.4106536 27.0565503,24.4433351 27.0550584,24.4758229 C27.0565537,24.559051 27.0573045,24.6424619 27.0573045,24.7260492 C27.0573045,32.2271334 21.0105929,38.3079635 13.5515962,38.3079635 C6.09259939,38.3079635 0.0458877889,32.2271334 0.0458877889,24.7260492 C0.0458877889,24.5614509 0.048799324,24.3975364 0.0545734275,24.234355 C0.0424142367,24.1519965 0.0361177932,24.0678778 0.0361177932,23.9824545 L0.0361177932,10.1464585 C0.0361177932,9.18575509 0.809006767,8.40695111 1.77738886,8.40695111 C2.73906632,8.40695111 3.51865993,9.19593451 3.51865993,10.1464585 L3.51865993,15.6336065 C3.74179621,15.3847626 3.97395659,15.1442617 4.21462251,14.9126253 C4.19825846,14.8070046 4.18976637,14.6987066 4.18976637,14.5883387 L4.18976637,4.91389729 C4.18976637,3.76029397 5.11723314,2.82511369 6.27929166,2.82511369 C7.4333046,2.82511369 8.36881694,3.75549214 8.36881694,4.91389729 L8.36881694,12.1801496 C8.59003458,12.0876239 8.81422523,12.000843 9.04120472,11.9199921 C9.03905731,11.8810468 9.03796938,11.8418085 9.03796938,11.802305 L9.03796938,2.12786358 C9.03796938,0.974260254 9.96543615,0.0390799828 11.1274947,0.0390799828 C12.2815076,0.0390799828 13.2170199,0.969458427 13.2170199,2.12786358 L13.2170199,11.148221 C13.3282174,11.1455021 13.439748,11.1441348 13.5515962,11.1441348 C18.0646344,11.1441348 22.0606618,13.3702112 24.5131719,16.7900652 C24.5742972,16.8654893 24.6302911,16.9452859 24.680618,17.0289167 C24.6823223,17.031404 24.6840257,17.0338918 24.6857283,17.0363802 L24.6852673,17.0366806 C24.8721013,17.3502149 24.9795033,17.7171037 24.9795033,18.1092191 C24.9795033,19.2632321 24.0492399,20.1987444 22.901702,20.1987444 C22.1975061,20.1987444 21.5751306,19.8464527 21.1993395,19.3075629 L21.1957265,19.3099165 C20.9143697,18.9090606 20.602622,18.5313189 20.263855,18.1800821 C18.3596107,15.8008787 15.4397998,14.2784228 12.1663953,14.2784228 C6.42870548,14.2784228 1.77738886,18.9559844 1.77738886,24.7260492 C1.77738886,30.4961139 6.42870548,35.1736756 12.1663953,35.1736756 C15.4397998,35.1736756 18.3596107,33.6512197 20.263855,31.2720163 Z" id="Rectangle-89-Copy-126"></path>
                    </g>
                </g>
            </g>
        </g>
    </g>
</svg>